<?xml version="1.0" encoding="UTF-8"?>
<svg id="b" xmlns="http://www.w3.org/2000/svg" viewBox="0 0 390.22 390.22">
  <g id="c">
    <g id="d">
      <g id="e">
        <circle cx="195.11" cy="195.11" r="193.11" style="fill:#fff; stroke:#005580; stroke-miterlimit:10; stroke-width:4px;" />
        <path d="M341.88,195.9c0,37.83-14.31,72.31-37.82,98.33-1.52-.6-3.17-1.14-4.97-1.6-6.47-1.67-20.86-3.94-27.58-4.64-6.73-.69-17.85-.69-25.27,2.09-4.8,1.8-7.08,5.9-7.25,8.69-.26,4.16,4.34,5.97,4.11,8.75-.23,2.78-2.66,4.49-6.83,7.13-2.78,1.62-11.64,4.36-18.31,6.72-6.77,2.41-14.53,2.65-22.25,3.25-7.19.56-18.95-1.1-27.35-2.78-9.7-1.93-22.72-8.81-22.72-8.81,0,0-3.08-1.67.7-4.87,3.1-3.14,5.53-4.41,7.02-5.98.7-.73,1-2.08.68-3.04-1.25-3.73-6.2-11.84-25.49-11.66-13.79.13-29.68,4.34-41.17,8.1-24.23-26.17-39.04-61.2-39.04-99.68,0-81.06,65.71-146.77,146.77-146.77s146.77,65.71,146.77,146.77Z" style="fill:none; stroke:#005580; stroke-miterlimit:10; stroke-width:4px;" />
        <path d="M318.05,305.91l-9.46,3.42-12.05,4.02c-.22.07-.3.35-.15.53,1.45,1.72,7.53,8.94,8.96,10.87,1.62,2.2,3.72,8.03,3.94,11.94.21,3.5-5.8,0-5.8,0,0,0-11.36-4.64-15.07-5.8-6.75-2.21-14.42-2.72-14.42-2.72,0,0-6.57,0-8.3,2.49-1.59,2.29-3.01,3.01-1.85,5.1,1.16,2.09,3.71,2.55,6.03,3.25s6.11.21,6.72,2.55c.91,3.45-4.58,8.13-6.43,9.75-1.85,1.62-8.25,5.48-10.1,6.64-1.85,1.16-12.21,4.57-15.22,5.5-3.01.93-20.38,4.17-24.81,4.77-8.26,1.11-37.84.85-48.22,0-8.17-.67-33.15-6.49-39.41-9.27-6.26-2.78-13.68-5.8-15.3-10.89-1.62-5.1.7-7.19,1.85-8.11.68-.55,3.07-.51,4.92-.39,1.33.09,2.25-1.28,1.69-2.49-.54-1.14-1.52-2.48-3.3-3.66-3.49-2.3-11.83-3.51-21.62-.14-12.35,4.25-21.65,13.28-21.65,13.28,0,0-.14-8,4.96-15.41,5.1-7.41,13.21-15.07,13.21-15.07l-25.58-14.68s6.43-2.76,15.79-5.81c11.49-3.76,27.38-7.97,41.17-8.1,19.29-.18,24.24,7.93,25.49,11.66.32.96.02,2.31-.68,3.04-1.49,1.57-3.92,2.84-7.02,5.98-3.78,3.2-.7,4.87-.7,4.87,0,0,13.02,6.88,22.72,8.81,8.4,1.68,20.16,3.34,27.35,2.78,7.72-.6,15.48-.84,22.25-3.25,6.67-2.36,15.53-5.1,18.31-6.72,4.17-2.64,6.6-4.35,6.83-7.13.23-2.78-4.37-4.59-4.11-8.75.17-2.79,2.45-6.89,7.25-8.69,7.42-2.78,18.54-2.78,25.27-2.09,6.72.7,21.11,2.97,27.58,4.64,1.8.46,3.45,1,4.97,1.6,8.66,3.36,12.93,8.4,14.38,10.43.32.44.13,1.06-.39,1.25Z" style="fill:none; stroke:#005580; stroke-miterlimit:10; stroke-width:4px;" />
        <polygon points="290.14 252.31 100.07 252.31 141.62 180.63 176.93 119.69 202.05 155.73 240.67 103.57 263.26 171.49 274.62 205.64 276.57 211.51 290.14 252.31" style="fill:none; stroke:#005580; stroke-miterlimit:10; stroke-width:4px;" />
        <line x1="231.75" y1="67.03" x2="211.47" y2="77.62" style="fill:none; stroke:#005580; stroke-linecap:round; stroke-miterlimit:10; stroke-width:4px;" />
        <line x1="232.97" y1="56.14" x2="209.82" y2="73.2" style="fill:none; stroke:#005580; stroke-linecap:round; stroke-miterlimit:10; stroke-width:4px;" />
        <line x1="215.21" y1="57.36" x2="203.54" y2="69.55" style="fill:none; stroke:#005580; stroke-linecap:round; stroke-miterlimit:10; stroke-width:4px;" />
        <line x1="202.5" y1="51.62" x2="197.98" y2="67.03" style="fill:none; stroke:#005580; stroke-linecap:round; stroke-miterlimit:10; stroke-width:4px;" />
        <line x1="193.86" y1="54.75" x2="191.89" y2="65.72" style="fill:none; stroke:#005580; stroke-linecap:round; stroke-miterlimit:10; stroke-width:4px;" />
        <path d="M185.27,50.57c.17.52,2.61,16.46,2.61,16.46" style="fill:none; stroke:#005580; stroke-linecap:round; stroke-miterlimit:10; stroke-width:4px;" />
        <line x1="180.75" y1="57.36" x2="184.64" y2="69.3" style="fill:none; stroke:#005580; stroke-linecap:round; stroke-miterlimit:10; stroke-width:4px;" />
        <line x1="172.04" y1="51.62" x2="182.69" y2="68.5" style="fill:none; stroke:#005580; stroke-linecap:round; stroke-miterlimit:10; stroke-width:4px;" />
        <line x1="172.04" y1="62.06" x2="180.36" y2="72.32" style="fill:none; stroke:#005580; stroke-linecap:round; stroke-miterlimit:10; stroke-width:4px;" />
        <line x1="155.81" y1="55.98" x2="177.73" y2="75.46" style="fill:none; stroke:#005580; stroke-linecap:round; stroke-miterlimit:10; stroke-width:4px;" />
        <line x1="154.63" y1="65.72" x2="175.39" y2="79.41" style="fill:none; stroke:#005580; stroke-linecap:round; stroke-miterlimit:10; stroke-width:4px;" />
        <line x1="122.43" y1="75.29" x2="174.35" y2="82.65" style="fill:none; stroke:#005580; stroke-linecap:round; stroke-miterlimit:10; stroke-width:4px;" />
        <line x1="137.4" y1="89.56" x2="173.8" y2="87.36" style="fill:none; stroke:#005580; stroke-linecap:round; stroke-miterlimit:10; stroke-width:4px;" />
        <line x1="120.52" y1="104.36" x2="173.8" y2="92.7" style="fill:none; stroke:#005580; stroke-linecap:round; stroke-miterlimit:10; stroke-width:4px;" />
        <line x1="145.58" y1="109.58" x2="175.39" y2="96.53" style="fill:none; stroke:#005580; stroke-linecap:round; stroke-miterlimit:10; stroke-width:4px;" />
        <line x1="131.31" y1="142.83" x2="177.11" y2="98.53" style="fill:none; stroke:#005580; stroke-linecap:round; stroke-miterlimit:10; stroke-width:4px;" />
        <line x1="165.77" y1="125.77" x2="181.77" y2="103.57" style="fill:none; stroke:#005580; stroke-linecap:round; stroke-miterlimit:10; stroke-width:4px;" />
        <line x1="182.59" y1="127.39" x2="187.88" y2="106.77" style="fill:none; stroke:#005580; stroke-linecap:round; stroke-miterlimit:10; stroke-width:4px;" />
        <line x1="191.87" y1="140.31" x2="193.86" y2="107.68" style="fill:none; stroke:#005580; stroke-linecap:round; stroke-miterlimit:10; stroke-width:4px;" />
        <line x1="203.54" y1="132.91" x2="199.84" y2="106.77" style="fill:none; stroke:#005580; stroke-linecap:round; stroke-miterlimit:10; stroke-width:4px;" />
        <line x1="212.87" y1="132.91" x2="202.5" y2="105.71" style="fill:none; stroke:#005580; stroke-linecap:round; stroke-miterlimit:10; stroke-width:4px;" />
        <line x1="220.36" y1="122.8" x2="204.86" y2="104.36" style="fill:none; stroke:#005580; stroke-linecap:round; stroke-miterlimit:10; stroke-width:4px;" />
        <line x1="225.35" y1="116.06" x2="209.38" y2="100.24" style="fill:none; stroke:#005580; stroke-linecap:round; stroke-miterlimit:10; stroke-width:4px;" />
        <line x1="222.52" y1="103.05" x2="211.76" y2="96.53" style="fill:none; stroke:#005580; stroke-linecap:round; stroke-miterlimit:10; stroke-width:4px;" />
        <line x1="242.89" y1="101.58" x2="213.92" y2="89.56" style="fill:none; stroke:#005580; stroke-linecap:round; stroke-miterlimit:10; stroke-width:4px;" />
        <line x1="252.46" y1="86.43" x2="213.92" y2="85.56" style="fill:none; stroke:#005580; stroke-linecap:round; stroke-miterlimit:10; stroke-width:4px;" />
        <line x1="269.7" y1="74.42" x2="213.92" y2="80.69" style="fill:none; stroke:#005580; stroke-linecap:round; stroke-miterlimit:10; stroke-width:4px;" />
      </g>
      <g id="f">
        <path d="M336.44,260.48l-.44.75-.85.32-.75.89-1.11-.11-.88.19-.65-.38-1.01-.11-.13.59-2.09.59-.77.65-.96.16-.34.75-.75-.11-.9-.03-.39.38-.62-.05-.77.67-.18.75v.86l-1.63,1.16-1.14,1.29v1.13l-.46,1.21-.46.05-.83-.99-1.34.13-.28-.59-.88.03-.44-.46-.77.38-.77-.16-.57.3-1.94-.62-1.06-.48v1.24l.67.83.18.83.7.97-.67.13-1.19-.64-2.87-.4-.49.54-.54,1.99-.54.7v1.4l-.65,1.29-.62.38.41.89v1.16l-.49.08-.8-.48-3.64-.08-1.37.75-.49-.78-2.19-.19-.75-.91v.4l-.75-.16h-.72l-.72-.43.77-.64.18-1.64-1.21-.7-1.32.05-.26.99h-.98l-5.39-1.83-1.99-.97-.34.4-.57-.27.18-.78-1.55-.7.05-.99,1.08.65.8-.62h-.98l-2.07-.89-.75-1.1.13,1.16-.77.59-.34-.64-1.26-.08-.18-.46-.96-.11-.8-.91-.9.03-.18-2.1-2.32-1.13-.44-.48-2.19-.68-.59.17-1.21-.78h-1.83l-.41.61-.75-.42-.46.67-.77-.78-1.34.08-2.4,2.07-.75-.35v-.7l-3.25-.11-.39-.32-1.78-.14-.36.28-2.22.24-.49.59-.15-.7-.67.54-.54-.27-.34.54-1.14-.16-.7-.56-1.81.11-.52.59-1.08-.03v.46l-2.94.48-.83-.43-.96-.03-.49-.86-.75.59.46,1.24-.36.4-.18.94.18.75-.85-.3v-.75l-1.83-.27v-.46l-.62-.35-.88.48.34.38-1.03.67-.18,1.05-.96.16-.67-.56-.98.21-.13.78-1.01-.19v.56l-.75-.11-.7.54-1.32-.54-.21-1.51-.88-.73-.83.91-.49-1.59.7-1.48.96-.21-.34-.67-1.86.24-.62.24-.8-.08-.83,1.32-.57-.03-.52,1.26-2.81.56-.88-.38-.85-.05-.77.46-.21.86-1.6-.05-.93.3h-.88l.57-.7-.26-1.26-.9.48-.34-.62-.49.35-.75.08-.62-.78-.98-.11-.88-1.69-.36,1.13-.44-.4-.88.03-1.01-.54-.93.24-.75-.19-.44-.78-.9.78-.52-.62-1.17.27-.58-.46-.39.16-.31-.62-.57-.05-.52-.24-.55.3-1.33-.17-.44-.34.44-.75-1.68-.81-.52-.62-.88.13v.48l-.77.03-.13.54-3.85-.59-1.83.11-.52.11-.7.03-.52.32-3.23-.03-.23.3-6.22-.43-.28.73-1.24-.16-1.39.62-1.65.08-.52.3-.83-.03-.23.13-.44.16-.57.21-.46-.03-.44.32h-.65l-.7.08-.98.43h-.75l-.49-.16-.23.43-.57.27-.75.27-.59.05-.65.03h-.31l-.88.08-.83-.43-1.99.16-.62.51-.59-.19-.34.4-.7-.3-.46.32-.8-.38-2.06-.11v-.75l-.54.56-.8-.24v-.62l-.83-1.05-1.32.03v-.67l-.36.46h-.96s-.65.51-.65.51l-.41.89-.77.43-1.29-.16.72.7-.31.32-1.29.05v-.78l-.75.13-.59-.91-.65,1.08-.39-.54-.39,1.02-.8-.89-.7.11v-.99l-.83-.27v1.05l-.67-.05v-1.83l-.28-.64-.49.4-.65-1.02v1.39l-.93-.26.23,1.05-2.63.16-.41-.64-.44.4-.65-.16-1.76.4-.31-.19-5.47.24-1.03-.54v.73l-.98-.03-1.01,1.1-2.32.67h-1.29v.99h-1.03l-1.81-.65-1.34-.97-3.48-.48-3.64-3.36-1.37.11-.44.46-3.95-1.32-.59.46-.72-.38-.57-.32-.9-.03-.72-.38-.67.59-.62-.56h-.57l-.57-.51h-1.19l-1.94-1.34-4.34-.46-1.01.19-2.4-1.53-.98-.27-1.86-1.26-.44-.81-1.73-.27-1.68-.81-1.5-1.34-.8.38-1.52-.4-.15-1.61-1.08-.86-1.19.16-.46.99-.52-1.42-.57.7-2.94-.97-1.45.97-.1.78-.57.51-.77.24-1.24-.46-.34.3-2.66-1.26.93-1.13-.05-1.32-1.14-2.45.03-.46-.39-.22-.28-.7v-3.09l.31-.62.21-1.34v-1.51l.85-2.96.77-1.37.98-1.21-.34-.91v-1.99l.59-.43-.18-.81.49-.21.13-1.37-.72-2.2.44-.16h1.73l.98-.73.52-1.13,1.11-.59.26-1.1,1.03-.91,1.14-.54,1.32-.29,1.76.32,1.32.56.52-.67,2.22.19.41-.83.65-.81.15-.75-.34-.89-1.14-.67-1.14-.16-1.5-.94-.67-.24-.67-.78-.44-1.42-.59-.62-.8-2.5-1.5-1.45-.28-.67-1.03-.94-.9-2.12.05-1.45,1.06.11.08-.51-.49-.7.03-.94.52-.27.88.38.44.94.96.35.65-1.13,1.29-.08-.21-.7-.59-.3-.36-.81.21-.91.62-.35.7.51.34-.7-.39-.7-.88-.05-.41-.99.49-.75s.2-1.36.21-1.52c0,.07.59-.49.59-.49l.7.56h.75l.7-.62.52-.94.54-.35,1.29.11.77-.46.85-1.94-.13-1.8-.15-.54.41-.65,1.5.08,1.81-.67.52-1.16,1.26-.16.83-1.34,1.39-1.18.5-1.5.65-.03.46-.65,1.39-.67,1.42-.11,3.85,1.24,1.34-.75,1.19.24,5.03-.59,2.4-1.16.67-.4.96.48.83-.65.75.19.39-1.56.72-.27.05-.56.77-.43-.05-.43.8-.48.83.35.93-.54,1.11.24.36-.65.62.08.49.65,1.73.83-.15.97,1.45.27.41-.91,1.86.13.03-.62.96-.81.93-.3.93.21v.59l1.16.43.26,1.07,1.94,3.04,2.01,1.4-.13.83-1.06,1.56-.57.16.44.4-.65,1.13-.72.08v.78l-.59.19-.03.78,1.45-.19.9-1.32.62-.3.67-1.34,1.01-1.1,1.14-.4-.13-1.02.72-.97,2.84.32.36.48,1.29.27v1.91l-1.52,1.08.34,1.34-.23.48,1.57.67.05-1.26.93-.91.62-.13.83-.97h2.4l.15-.65,1.63-.89.77-1.34,1.03-.13.03.81.88-.05.57-.81.93-.05.21.14-41.55,71.68h190.07l-13.57-40.8.02-.14.7-.16.28-.81,1.26-.32.23-.67.96-.19.05-.65,1.55-1.72.59-.11.1.83.65-.32,1.29-.32.7.56,1.14-.21.36-.56,1.34-.13,1.7-1.24.7.46,1.57-.11,1.03-.56,1.21-1.48.83-.48.13-.4,1.45-.43.21,1.21h2.3l.21.81,1.68.32,1.01,1.37-.98.86.26,2.55,1.63.24,1.37.38.23.75.75.35,1.34,2.55.05.65.65,1.94,1.94,1.13.96-.13.85.4h1.65l.31.24.03,2.9.34.38-.28.4.18,1.08,1.42.99.9-.08.15.4,1.19.4.39-1.13,1.96-.4.85-.73.49-1.45,1.32-.73.59.08.18,3.01-1.03.48-.21.89-.13,1.88-2.01,1.88-1.34.46-.26.56-2.35,1.32-1.39,2.37-.05,1.05.77-.13.34-.73.62.03.26.83.26-.62.83-.13.26.94-.15,1.26.46.24.03,1.77.54.65-.41.75.52.43.54-.62,1.14-.16-.23-1.29.93.65.26.99.98-1.37.65-.32-.39,1.16.26.89.96,1.1.1-.7.52-.32,1.5,1.1,1.06,1.72.52.4.77.03.57,1.4.54-.7,1.47-.16-.44.73.62.56.03.86.34.08.54.75.1.99,1.19.94.96-.3,1.11.65.15,1.53-.31.5v.82l.21.7.15.54.13.4.44.67-.21.86-.96.13-1.06.7.9.97-.36.81-.75.08-.18.59.62.48.13,1.24,1.32-.08.23.46,1.29.75Z" style="fill:#005580;" />
        <polygon points="274.62 205.64 263.26 171.49 263.49 171.49 264.94 172.32 266.44 171.92 268.81 170.33 270.23 170.17 271.62 170.87 272.63 170.9 272.6 170.04 273.5 169.82 275.64 167.45 276.57 167.26 276.85 168.17 280.72 168.06 282.42 168.92 282.83 168.68 284.33 168.71 285.26 168.2 285.72 168.6 284.92 169.16 285 169.91 285.46 170.56 285.23 170.99 284.71 171.18 284.97 172.07 284.3 172.53 283.84 172.53 282.91 173.34 282.88 173.96 282.11 174.77 281.08 175.09 280.02 175.22 280.05 175.92 279.51 175.54 278.66 176.19 278.81 177.05 277.18 177.37 276.59 178.34 276.13 178.61 275.36 179.19 275.59 180.43 275.1 180.56 274.51 181.53 275 183.36 275 184.76 275.49 185.41 276.86 185.71 277.79 184.77 278.69 185.58 280.6 185.28 281.12 185.52 281.02 186.41 280.58 186.41 280.04 187.46 279.19 187.68 277.98 189.1 277.39 189.1 276.9 189.72 277.05 190.28 277.08 191.65 276.51 192.08 276.46 192.64 276.05 193.71 275.48 194.06 275.4 195.27 274.42 195.65 274.6 196.43 274.24 196.64 274.29 199.06 275.06 199.95 274.67 201.13 275.01 202.34 275.66 203.31 275.69 204.68 275.04 205.54 274.62 205.64" style="fill:#005580;" />
        <polygon points="111.14 245.66 177.11 131.53 200.12 167.45 236.31 120.79 279.08 245.66 111.14 245.66" style="fill:#005580;" />
        <g id="g">
          <path d="M32.56,211.25l-11.35-3.23-.76-6.7.45-.05.06.53c.06.49.18.86.39,1.14.14.19.34.33.63.42.2.07.71.05,1.53-.04l10.84-1.24c.84-.1,1.36-.2,1.56-.31s.36-.32.49-.61.16-.67.11-1.13l-.06-.53.45-.05.98,8.59-.45.05-.06-.53c-.06-.48-.18-.86-.39-1.13-.14-.19-.35-.33-.64-.42-.2-.07-.72-.05-1.54.04l-12.19,1.39,15.72,4.6.03.29-14.16,8.1,11.58-1.32c.81-.09,1.3-.17,1.48-.23.39-.15.7-.42.91-.8s.28-.95.19-1.7l.45-.05.64,5.63-.45.05-.02-.17c-.03-.36-.13-.7-.29-1s-.36-.52-.58-.66c-.23-.14-.54-.23-.93-.27-.09,0-.5.03-1.24.12l-10.41,1.19c-.83.09-1.35.2-1.54.31-.2.11-.36.31-.48.61s-.16.67-.11,1.13l.06.52-.45.05-.77-6.72,10.32-5.87Z" style="fill:#005580;" />
          <path d="M21.53,193.8l6.74.11v-.33c.03-1.05-.29-1.82-.94-2.3-.65-.48-1.62-.8-2.9-.95v-.46s8.68.14,8.68.14v.46c-.96.08-1.73.28-2.34.58-.61.3-1.02.66-1.23,1.07s-.33,1.01-.34,1.8l4.66.08c.91.02,1.47,0,1.67-.09.21-.07.37-.21.51-.42.13-.21.2-.55.21-1.02l.02-.99c.02-1.55-.31-2.79-1.01-3.73-.7-.94-1.78-1.63-3.24-2.06v-.45s5.26.83,5.26.83l-.23,14.31h-.45s0-.56,0-.56c0-.48-.07-.87-.24-1.16-.11-.21-.3-.38-.58-.5-.19-.09-.71-.15-1.54-.16l-10.89-.18c-.75,0-1.21,0-1.38.04-.29.08-.51.22-.67.44-.23.31-.35.73-.36,1.26v.55s-.46,0-.46,0l.22-13.85,4.89.08v.46c-1.21.22-2.07.53-2.6.95s-.92,1.02-1.18,1.79c-.15.45-.24,1.31-.26,2.56l-.03,1.71Z" style="fill:#005580;" />
          <path d="M21.93,167.03l5.8.6-.05.45c-1.64.38-2.93,1.07-3.87,2.07-.94,1-1.47,2.14-1.61,3.43-.13,1.23.11,2.29.72,3.18s1.51,1.57,2.72,2.04c1.2.47,2.46.77,3.76.9,1.58.16,2.98.12,4.21-.13s2.16-.76,2.81-1.53c.64-.77,1.02-1.73,1.14-2.87.04-.4.04-.81,0-1.23s-.12-.87-.24-1.32l-3.42-.35c-.65-.07-1.07-.07-1.27,0s-.39.24-.57.5-.29.59-.33.99l-.04.42-.45-.05.83-8,.45.05c-.02.61.02,1.04.12,1.29s.29.46.57.62c.15.09.52.16,1.12.23l3.42.35c.36,1.1.6,2.23.72,3.39.12,1.16.12,2.35,0,3.58-.16,1.56-.51,2.84-1.04,3.83s-1.18,1.84-1.96,2.56-1.62,1.25-2.53,1.61c-1.18.45-2.46.61-3.84.46-2.48-.26-4.48-1.34-6.01-3.26s-2.16-4.19-1.88-6.83c.08-.82.23-1.55.42-2.19.1-.35.35-.91.73-1.67.39-.77.59-1.22.6-1.37.02-.23-.04-.45-.18-.66-.15-.21-.44-.42-.89-.63l.05-.46Z" style="fill:#005580;" />
          <path d="M32.39,159.99l5.01,1.09c.83.18,1.35.25,1.58.2.23-.05.45-.19.66-.42s.37-.58.47-1.03l.12-.54.44.1-1.84,8.46-.44-.1.12-.54c.1-.47.1-.87,0-1.19-.07-.23-.22-.43-.47-.6-.17-.13-.66-.28-1.47-.46l-10.64-2.32c-.83-.18-1.35-.25-1.58-.21s-.45.18-.66.41c-.21.23-.37.58-.47,1.03l-.13.56-.44-.1,1.84-8.46.44.1-.12.54c-.1.47-.1.86,0,1.19.07.23.22.44.47.61.17.13.66.28,1.47.46l4.58,1,1.25-5.71-4.58-1c-.83-.18-1.35-.25-1.58-.21s-.45.18-.66.42-.37.58-.47,1.03l-.11.53-.44-.1,1.84-8.44.44.1-.11.53c-.1.48-.1.87,0,1.19.07.23.22.44.47.61.17.13.66.28,1.47.46l10.64,2.32c.83.18,1.35.25,1.58.21.23-.04.45-.18.66-.42s.37-.58.47-1.03l.11-.52.44.1-1.84,8.44-.44-.1.11-.53c.1-.48.1-.87,0-1.19-.07-.23-.22-.44-.47-.61-.17-.13-.66-.28-1.47-.46l-5.01-1.09-1.24,5.69Z" style="fill:#005580;" />
          <path d="M41.23,139.77l-1.85,5.55,1.31,1.17c.44.39.82.64,1.15.75.44.15.82.08,1.15-.21.19-.17.46-.65.79-1.45l.43.14-1.74,5.22-.43-.14c.1-.59.02-1.13-.24-1.62-.26-.49-.9-1.2-1.92-2.13l-10.65-9.8.07-.22,14.77-1.36c1.4-.13,2.32-.32,2.75-.56.33-.18.59-.51.79-.97l.43.14-2.54,7.59-.43-.14.1-.31c.2-.61.26-1.07.17-1.37-.07-.21-.22-.36-.45-.43-.14-.05-.29-.07-.45-.07-.07,0-.4,0-.98.06l-2.23.16ZM40.24,139.88l-6.19.53,4.6,4.21,1.59-4.74Z" style="fill:#005580;" />
          <path d="M48.67,118.89l5.05,2.95-6.02,13.41-.41-.19.22-.5c.2-.44.28-.83.24-1.16-.02-.24-.13-.47-.33-.69-.14-.16-.59-.41-1.35-.75l-9.93-4.46c-.77-.35-1.27-.52-1.5-.53-.23,0-.47.08-.73.27s-.48.49-.67.91l-.23.5-.41-.18,3.61-8.05.41.19-.29.66c-.2.44-.28.83-.24,1.16.02.24.13.47.33.7.14.16.59.41,1.35.75l9.62,4.32c.77.35,1.28.52,1.54.53.25,0,.49-.1.71-.31.15-.16.38-.59.7-1.3l.56-1.26c.36-.8.52-1.53.48-2.19s-.28-1.32-.71-1.99c-.43-.66-1.17-1.44-2.2-2.32l.2-.47Z" style="fill:#005580;" />
          <path d="M54.59,110.65l-2.91,5.07,1.05,1.41c.35.46.68.78.98.96.4.23.79.24,1.17.02.22-.13.58-.55,1.06-1.26l.39.22-2.74,4.78-.39-.23c.22-.56.25-1.11.09-1.64s-.65-1.36-1.46-2.47l-8.51-11.71.12-.2,14.75,1.58c1.4.15,2.33.14,2.81-.01.36-.11.68-.38.96-.8l.39.22-3.98,6.95-.39-.22.16-.29c.32-.56.47-.99.44-1.31-.02-.22-.14-.39-.35-.51-.13-.07-.27-.13-.43-.16-.07-.02-.4-.07-.98-.14l-2.23-.26ZM53.6,110.56l-6.17-.7,3.68,5.04,2.49-4.34Z" style="fill:#005580;" />
          <path d="M56.93,85.71l.37.26c-.25.49-.36.92-.33,1.3.05.53.44,1.59,1.19,3.18l2.86,6.37,3.28,2.29c.7.49,1.16.76,1.38.8.22.04.47,0,.75-.12.28-.13.55-.37.8-.73l.53-.76.37.26-5.32,7.62-.37-.26.5-.71c.28-.4.43-.77.45-1.1.03-.24-.04-.49-.19-.75-.11-.19-.5-.52-1.18-.99l-2.72-1.9-8.04-.87c-1.59-.17-2.58-.19-2.96-.07-.39.12-.73.39-1.04.82l-.37-.26,4.54-6.51.37.26-.2.29c-.27.39-.41.71-.41.94s.07.4.2.49c.24.17,1.03.32,2.37.46l6.21.68-2.39-5.3c-.58-1.31-1.03-2.07-1.36-2.3-.18-.13-.39-.14-.63-.05-.33.11-.72.46-1.17,1.04l-.37-.26,2.88-4.12Z" style="fill:#005580;" />
          <path d="M71.27,87.17l-3.76,4.48.79,1.57c.27.52.53.89.8,1.12.36.3.74.37,1.15.23.24-.08.66-.44,1.27-1.06l.35.29-3.54,4.22-.35-.29c.31-.51.44-1.05.38-1.6s-.4-1.45-1-2.69l-6.32-13.02.15-.18,14.24,4.15c1.35.39,2.27.55,2.76.48.37-.05.73-.25,1.09-.62l.35.29-5.14,6.14-.35-.29.21-.25c.41-.49.63-.9.67-1.21.02-.22-.07-.41-.26-.57-.11-.09-.24-.17-.39-.23-.07-.04-.38-.14-.94-.31l-2.16-.65ZM70.31,86.91l-5.95-1.77,2.74,5.61,3.21-3.84Z" style="fill:#005580;" />
          <path d="M81.61,59.39l3.91,4.2-.35.32c-1.28-.85-2.55-1.24-3.81-1.16-1.26.08-2.34.54-3.25,1.39-.76.7-1.25,1.57-1.48,2.59s-.16,2.02.2,3c.46,1.25,1.21,2.42,2.23,3.53,1.01,1.08,2.06,1.94,3.17,2.58,1.1.64,2.16.91,3.17.82,1.01-.09,1.98-.56,2.91-1.43.76-.71,1.31-1.53,1.63-2.45s.46-2.12.4-3.59l.97,1.05c-.02,1.34-.25,2.51-.69,3.52-.44,1-1.15,1.96-2.13,2.88-1.29,1.2-2.68,2.01-4.17,2.43s-2.95.39-4.4-.07-2.68-1.24-3.7-2.34c-1.08-1.16-1.79-2.53-2.15-4.13s-.29-3.16.2-4.69,1.32-2.83,2.48-3.91c.85-.79,1.92-1.45,3.21-1.96.75-.29,1.2-.51,1.34-.65.19-.18.29-.4.3-.67s-.11-.58-.35-.92l.36-.34Z" style="fill:#005580;" />
          <path d="M90.39,52.76c2.05-1.66,4.23-2.33,6.53-2.01s4.19,1.47,5.66,3.43c1.26,1.68,1.87,3.53,1.85,5.54-.03,2.67-1.24,4.89-3.62,6.67-2.38,1.79-4.83,2.36-7.34,1.72-1.99-.5-3.63-1.63-4.95-3.39-1.47-1.97-2.03-4.11-1.68-6.42s1.54-4.15,3.55-5.54ZM90.98,53.3c-1.21.91-1.67,2.22-1.37,3.93.25,1.4,1.08,3.05,2.51,4.96,1.69,2.26,3.34,3.63,4.95,4.12,1.12.34,2.18.14,3.17-.61.67-.5,1.11-1.08,1.31-1.75.26-.85.21-1.85-.16-3s-1.1-2.47-2.2-3.94c-1.31-1.75-2.46-2.94-3.43-3.57-.98-.62-1.85-.93-2.62-.91-.79.02-1.5.28-2.16.77Z" style="fill:#005580;" />
          <path d="M117.42,48.27l2.45,5.3-12.61,7.56-.23-.39.47-.28c.41-.25.7-.52.86-.82.12-.21.16-.46.12-.75-.02-.21-.25-.68-.68-1.39l-5.6-9.34c-.44-.73-.75-1.16-.93-1.29-.19-.13-.44-.2-.75-.2s-.67.13-1.07.36l-.47.28-.23-.39,7.57-4.54.23.39-.62.37c-.41.25-.7.52-.86.82-.12.21-.17.46-.13.76.02.21.25.68.68,1.39l5.42,9.05c.44.73.75,1.16.96,1.31.2.15.46.2.76.15.21-.04.65-.26,1.32-.67l1.18-.71c.75-.45,1.3-.96,1.65-1.53.34-.57.53-1.25.55-2.04s-.14-1.84-.48-3.16l.44-.24Z" style="fill:#005580;" />
          <path d="M131.36,41.58l1.94,5.51-13.26,6.33-.19-.41.5-.24c.43-.21.75-.45.94-.73.14-.19.2-.44.19-.74,0-.21-.18-.7-.54-1.45l-4.69-9.83c-.36-.76-.63-1.22-.8-1.38s-.42-.24-.73-.27c-.31-.03-.68.06-1.1.26l-.5.24-.19-.41,7.96-3.8.19.41-.65.31c-.43.21-.75.45-.94.73-.14.19-.21.44-.2.74,0,.21.18.7.54,1.45l4.54,9.52c.36.76.64,1.23.83,1.4.19.17.44.24.74.22.21-.02.68-.2,1.38-.54l1.24-.59c.79-.38,1.39-.83,1.78-1.37s.64-1.19.74-1.98.04-1.85-.18-3.19l.46-.19Z" style="fill:#005580;" />
          <path d="M134.06,30.14l2.31,6.33.31-.11c.99-.36,1.59-.93,1.8-1.71s.17-1.8-.15-3.05l.44-.16,2.98,8.14-.44.16c-.42-.85-.87-1.51-1.38-1.97s-.98-.71-1.44-.77c-.46-.05-1.06.06-1.8.33l1.6,4.38c.31.86.54,1.37.68,1.53s.34.27.58.32.59,0,1.03-.17l.93-.34c1.45-.53,2.49-1.29,3.12-2.29.63-.99.88-2.25.76-3.76l.42-.15,1.11,5.2-13.44,4.91-.16-.42.52-.19c.45-.16.78-.38,1-.64.16-.18.25-.42.26-.72.02-.21-.12-.71-.4-1.49l-3.74-10.23c-.26-.7-.43-1.13-.53-1.27-.17-.24-.39-.39-.65-.46-.37-.11-.81-.07-1.31.11l-.52.19-.16-.42,13.01-4.76,1.68,4.6-.44.16c-.63-1.04-1.24-1.74-1.82-2.08-.58-.34-1.28-.49-2.1-.46-.48.02-1.31.24-2.48.67l-1.58.59Z" style="fill:#005580;" />
          <path d="M159.53,21.23l1.43,5.66-.44.11c-.92-1.41-2.01-2.39-3.27-2.93-1.26-.54-2.52-.65-3.77-.33-1.2.3-2.11.89-2.74,1.77s-.95,1.96-.98,3.25.12,2.57.44,3.84c.39,1.54.91,2.84,1.56,3.91.66,1.07,1.46,1.77,2.4,2.11.95.34,1.98.37,3.09.09.39-.1.77-.24,1.16-.42.39-.18.77-.41,1.16-.68l-.84-3.34c-.16-.63-.31-1.03-.44-1.19s-.36-.29-.67-.37c-.31-.08-.66-.07-1.04.02l-.41.1-.11-.44,7.8-1.97.11.44c-.58.19-.97.37-1.18.55-.2.18-.33.43-.39.75-.03.17.02.54.17,1.13l.84,3.34c-.91.72-1.89,1.33-2.94,1.84s-2.17.92-3.36,1.22c-1.52.38-2.84.5-3.95.33-1.11-.16-2.14-.48-3.08-.96s-1.73-1.09-2.38-1.82c-.83-.95-1.41-2.1-1.75-3.45-.61-2.42-.27-4.67,1-6.76s3.2-3.46,5.77-4.11c.8-.2,1.53-.32,2.2-.35.36-.02.97.01,1.82.11s1.35.13,1.49.1c.22-.06.41-.19.55-.4.15-.21.25-.56.29-1.05l.46-.1Z" style="fill:#005580;" />
          <path d="M168.57,21.11l.96,6.67.33-.05c1.04-.15,1.74-.58,2.12-1.3.37-.72.53-1.73.48-3.02l.46-.07,1.24,8.58-.46.07c-.23-.92-.55-1.66-.94-2.21-.4-.55-.81-.9-1.25-1.05-.44-.15-1.05-.16-1.83-.05l.67,4.62c.13.9.25,1.45.35,1.64.11.19.27.33.5.43s.58.11,1.04.05l.98-.14c1.53-.22,2.71-.75,3.53-1.6.82-.84,1.33-2.02,1.52-3.52l.45-.07.02,5.31-14.16,2.05-.06-.45.54-.08c.48-.07.85-.21,1.11-.42.19-.14.33-.36.4-.65.06-.21.03-.72-.09-1.54l-1.56-10.78c-.11-.74-.19-1.19-.26-1.36-.12-.27-.3-.47-.54-.59-.34-.18-.77-.23-1.31-.16l-.54.08-.06-.45,13.71-1.98.7,4.84-.46.07c-.4-1.15-.86-1.95-1.35-2.41-.5-.45-1.15-.75-1.96-.88-.47-.08-1.33-.03-2.57.15l-1.71.27Z" style="fill:#005580;" />
          <path d="M198.53,18.03l.1,4.48h-.44c-.28-1.02-.59-1.75-.92-2.2-.33-.44-.77-.79-1.33-1.05-.31-.14-.86-.2-1.63-.18l-1.23.03.29,12.77c.02.85.08,1.37.18,1.58.1.21.29.39.56.54.28.15.65.22,1.12.21h.55s0,.44,0,.44l-8.67.2v-.45s.54,0,.54,0c.48,0,.87-.11,1.15-.28.21-.12.37-.32.49-.6.09-.2.12-.71.1-1.54l-.29-12.76-1.2.03c-1.12.03-1.92.28-2.41.76-.69.67-1.12,1.62-1.28,2.85h-.46s-.1-4.47-.1-4.47l14.87-.35Z" style="fill:#005580;" />
          <path d="M205.92,19.43l-.47,6.72.33.02c1.05.07,1.83-.2,2.35-.83.52-.62.89-1.57,1.11-2.85l.46.03-.61,8.65-.46-.03c-.03-.95-.18-1.73-.45-2.36-.27-.62-.61-1.05-1-1.29-.4-.24-.99-.38-1.78-.44l-.33,4.65c-.06.91-.06,1.47,0,1.68s.2.38.4.53c.2.14.54.23,1.01.27l.99.07c1.54.11,2.8-.16,3.78-.81s1.72-1.69,2.23-3.12l.45.03-1.11,5.2-14.27-1,.03-.45.55.04c.48.03.87-.02,1.17-.17.22-.1.39-.28.53-.55.1-.19.18-.7.24-1.52l.76-10.86c.05-.75.06-1.21.04-1.38-.06-.29-.2-.52-.4-.69-.29-.25-.71-.39-1.24-.43l-.55-.04.03-.45,13.82.97-.34,4.88-.46-.03c-.15-1.21-.42-2.09-.81-2.64s-.97-.97-1.73-1.27c-.44-.18-1.29-.31-2.54-.4l-1.73-.13Z" style="fill:#005580;" />
          <path d="M223.96,32.54l-5.76-.98-.96,1.47c-.31.49-.5.91-.56,1.25-.08.46.05.83.38,1.1.19.17.71.35,1.55.56l-.08.45-5.43-.92.08-.45c.6,0,1.12-.15,1.57-.48.44-.33,1.05-1.07,1.81-2.22l8.05-12.03.23.04,3.6,14.38c.35,1.36.67,2.24.98,2.63.23.29.59.5,1.08.63l-.08.45-7.89-1.34.08-.45.32.06c.63.11,1.09.1,1.38-.04.2-.1.32-.27.36-.51.02-.14.03-.3,0-.46,0-.08-.07-.4-.21-.96l-.5-2.18ZM223.71,31.58l-1.47-6.03-3.46,5.19,4.93.84Z" style="fill:#005580;" />
          <path d="M249.6,26.26l-1.54,5.53-.46-.13c.06-1.54-.28-2.82-1-3.85-.73-1.03-1.68-1.71-2.88-2.04-1-.28-1.99-.25-2.98.09-.99.34-1.81.92-2.45,1.74-.82,1.05-1.44,2.29-1.84,3.74-.4,1.43-.58,2.78-.55,4.05s.35,2.32.95,3.13c.6.81,1.51,1.39,2.74,1.73,1,.28,1.98.32,2.94.11s2.05-.72,3.27-1.53l-.38,1.38c-1.15.68-2.27,1.1-3.36,1.25-1.08.15-2.27.04-3.57-.32-1.7-.48-3.12-1.24-4.25-2.29s-1.88-2.32-2.24-3.79c-.36-1.48-.34-2.94.06-4.38.42-1.52,1.22-2.85,2.4-3.99s2.55-1.9,4.11-2.28c1.56-.38,3.1-.35,4.62.07,1.12.31,2.24.89,3.35,1.72.64.48,1.06.75,1.26.81.25.07.49.04.73-.09s.44-.39.6-.78l.47.12Z" style="fill:#005580;" />
          <path d="M253.97,37.46l-1.9,4.76c-.31.79-.47,1.29-.46,1.53.01.23.11.47.3.72s.51.46.94.63l.51.2-.17.42-8.04-3.21.17-.42.51.2c.45.18.84.24,1.17.19.24-.03.46-.15.67-.36.16-.15.39-.61.7-1.38l4.04-10.11c.31-.79.47-1.29.46-1.52,0-.23-.1-.47-.3-.72-.19-.25-.51-.46-.94-.63l-.51-.2.17-.42,8.04,3.21-.17.42-.51-.2c-.45-.18-.84-.24-1.17-.19-.24.03-.47.15-.68.36-.16.15-.39.61-.7,1.38l-1.74,4.35,5.43,2.17,1.74-4.35c.31-.79.47-1.29.46-1.52,0-.23-.11-.47-.3-.72s-.51-.46-.94-.63l-.5-.2.17-.42,8.03,3.21-.17.42-.5-.2c-.45-.18-.84-.25-1.17-.19-.24.03-.47.15-.68.36-.16.15-.39.61-.7,1.38l-4.04,10.11c-.31.79-.47,1.29-.46,1.52s.11.47.3.72.51.46.94.63l.5.2-.17.42-8.03-3.21.17-.42.5.2c.45.18.84.25,1.17.19.24-.03.47-.15.68-.36.16-.15.39-.61.7-1.38l1.9-4.76-5.42-2.18Z" style="fill:#005580;" />
          <path d="M274.35,38.2l-3.13,5.97.29.15c.93.49,1.76.55,2.48.19s1.44-1.08,2.16-2.16l.41.21-4.03,7.67-.41-.22c.35-.88.53-1.66.53-2.34s-.13-1.21-.4-1.58c-.27-.38-.76-.75-1.46-1.12l-2.17,4.13c-.42.81-.65,1.32-.68,1.54s.02.43.15.64.4.43.82.65l.88.46c1.37.72,2.63.98,3.79.78s2.26-.86,3.3-1.96l.4.21-3.11,4.31-12.67-6.65.21-.4.49.25c.42.22.81.33,1.15.31.24,0,.48-.1.71-.29.17-.13.45-.56.83-1.3l5.06-9.64c.35-.66.54-1.08.59-1.25.06-.29.03-.55-.09-.79-.17-.34-.49-.64-.96-.89l-.49-.25.21-.4,12.27,6.44-2.28,4.33-.41-.22c.35-1.17.45-2.08.32-2.74-.14-.66-.49-1.28-1.07-1.86-.34-.34-1.06-.8-2.17-1.39l-1.52-.79Z" style="fill:#005580;" />
          <path d="M283.99,53.01l-2.55,3.88c-.49.75-.76,1.25-.79,1.5-.04.25.02.51.18.78s.55.61,1.18,1.03l-.25.38-7.08-4.66.25-.38c.64.42,1.11.65,1.42.68.31.03.57-.02.78-.15s.57-.57,1.06-1.32l5.91-8.97c.49-.75.76-1.25.79-1.5.04-.25-.02-.51-.18-.78s-.55-.61-1.18-1.03l.25-.38,6.42,4.23c1.67,1.1,2.82,2.02,3.44,2.76s.97,1.58,1.05,2.53c.08.94-.16,1.83-.71,2.67-.67,1.02-1.59,1.62-2.77,1.8-.75.11-1.61,0-2.59-.35l.24,6.87c.04.89.1,1.47.18,1.74.14.39.39.72.74.98l-.25.38-4.35-2.87-.31-9.23-.88-.59ZM288.45,46.23l-3.99,6.06.58.38c.95.62,1.71,1,2.29,1.14.58.13,1.16.07,1.72-.21.57-.28,1.09-.78,1.57-1.5.69-1.05.96-1.99.8-2.82-.16-.83-.79-1.6-1.88-2.32l-1.09-.73Z" style="fill:#005580;" />
          <path d="M307.66,58.71l-3.33,4.4-.39-.31c.68-1.23.92-2.46.72-3.7-.2-1.23-.72-2.19-1.56-2.85-.65-.52-1.3-.75-1.96-.71-.66.05-1.16.29-1.52.75-.23.29-.36.59-.41.92-.05.45.01.98.18,1.59.13.45.53,1.37,1.18,2.77.92,1.95,1.38,3.47,1.39,4.55,0,1.08-.35,2.04-1.03,2.9-.86,1.08-2.02,1.68-3.49,1.79-1.46.11-2.85-.35-4.15-1.39-.41-.32-.76-.67-1.06-1.04s-.63-.89-.99-1.55c-.2-.37-.41-.63-.6-.79-.17-.13-.39-.21-.68-.23s-.59.06-.91.23l-.35-.28,3.89-4.89.35.28c-.81,1.6-1.11,3.08-.88,4.44.22,1.36.8,2.41,1.72,3.14.71.57,1.44.83,2.17.77s1.3-.33,1.71-.85c.24-.31.4-.67.46-1.08s.04-.88-.09-1.41c-.13-.52-.45-1.32-.96-2.41-.72-1.52-1.17-2.68-1.36-3.5-.19-.82-.23-1.59-.1-2.31s.43-1.39.91-1.99c.82-1.03,1.9-1.61,3.23-1.73,1.33-.12,2.58.27,3.73,1.19.42.33.79.71,1.1,1.13.24.31.49.75.76,1.29.26.55.48.89.66,1.03.17.13.34.18.51.16.18-.03.46-.2.85-.52l.3.21Z" style="fill:#005580;" />
          <path d="M305.1,67.3l.36-.4c.97.33,1.84.39,2.59.2.75-.2,1.35-.55,1.81-1.06.09-.1.13-.19.14-.28,0-.09-.02-.15-.06-.19-.04-.03-.11-.06-.22-.08-.27-.05-.53-.2-.79-.43-.36-.32-.54-.74-.56-1.25-.01-.52.15-.96.49-1.34.36-.4.83-.62,1.4-.65.58-.03,1.08.15,1.51.53.52.47.79,1.07.79,1.8s-.3,1.45-.93,2.16c-.78.87-1.73,1.4-2.86,1.6s-2.36,0-3.67-.61Z" style="fill:#005580;" />
          <path d="M314.36,82.02l-4.01-4.25-1.65.6c-.55.2-.95.42-1.2.67-.34.32-.46.69-.36,1.11.06.25.36.71.9,1.38l-.33.31-3.78-4,.33-.31c.47.37.99.56,1.54.56s1.48-.23,2.79-.68l13.67-4.76.16.17-5.77,13.66c-.54,1.3-.81,2.19-.8,2.69.01.37.17.76.49,1.15l-.33.31-5.5-5.82.33-.31.23.24c.44.47.82.73,1.12.8.22.04.42-.02.59-.19.11-.1.2-.22.28-.36.04-.06.18-.36.41-.89l.89-2.08ZM314.73,81.1l2.45-5.71-5.89,2.07,3.44,3.64Z" style="fill:#005580;" />
          <path d="M335.54,88.31l-4.25,3.52-.31-.39c.94-1.04,1.46-2.19,1.55-3.43.09-1.25-.2-2.29-.86-3.14-.51-.65-1.09-1.03-1.74-1.14s-1.2.02-1.65.38c-.29.23-.49.5-.61.8-.16.42-.22.95-.19,1.59.03.47.2,1.46.52,2.96.45,2.11.55,3.69.3,4.75-.25,1.05-.81,1.91-1.66,2.58-1.09.86-2.36,1.17-3.81.94s-2.69-1-3.72-2.3c-.32-.41-.59-.83-.79-1.26s-.41-1.01-.61-1.74c-.11-.41-.25-.71-.4-.91-.13-.17-.33-.29-.61-.38-.27-.08-.59-.08-.94.01l-.28-.35,4.91-3.87.28.35c-1.16,1.37-1.79,2.74-1.88,4.11s.22,2.52.95,3.45c.56.72,1.21,1.13,1.93,1.25s1.35-.03,1.86-.43c.31-.24.54-.56.7-.95s.24-.85.23-1.39-.13-1.39-.38-2.56c-.35-1.64-.52-2.88-.52-3.72s.14-1.6.43-2.27c.29-.68.73-1.25,1.34-1.73,1.04-.82,2.22-1.13,3.55-.94,1.33.19,2.45.86,3.36,2.02.33.42.6.87.81,1.35.16.36.31.84.44,1.43.13.59.27.98.4,1.15s.29.26.46.27c.18.02.49-.09.95-.31l.24.3Z" style="fill:#005580;" />
          <path d="M343.18,99.44l-4.51,3.18-.28-.42c1.02-.97,1.62-2.07,1.81-3.3.19-1.24-.02-2.3-.62-3.19-.46-.69-1.01-1.11-1.65-1.27s-1.2-.07-1.68.25c-.3.2-.53.46-.67.76-.19.41-.29.93-.31,1.57-.01.47.08,1.47.29,3,.29,2.14.27,3.72-.06,4.76-.33,1.03-.95,1.84-1.86,2.45-1.15.77-2.44.98-3.87.64-1.43-.34-2.6-1.2-3.53-2.58-.29-.43-.52-.87-.69-1.32-.17-.44-.33-1.04-.47-1.78-.08-.42-.19-.73-.33-.94-.12-.18-.31-.32-.58-.42s-.58-.13-.94-.06l-.25-.38,5.19-3.48.25.38c-1.26,1.28-1.99,2.59-2.19,3.96s.03,2.53.69,3.51c.51.76,1.12,1.22,1.83,1.4s1.34.08,1.89-.29c.32-.22.58-.51.77-.89s.3-.83.34-1.37-.02-1.4-.18-2.58c-.22-1.66-.3-2.91-.23-3.75.07-.84.27-1.58.61-2.23s.83-1.19,1.47-1.62c1.09-.73,2.3-.96,3.61-.67s2.37,1.04,3.19,2.27c.3.45.54.92.71,1.41.13.37.24.86.33,1.46.08.6.19,1,.31,1.18s.26.28.44.31.5-.05.97-.24l.2.29Z" style="fill:#005580;" />
          <path d="M348.88,109.61c1.34,2.27,1.68,4.52,1.03,6.75s-2.06,3.93-4.23,5.09c-1.85,1-3.76,1.34-5.75,1.01-2.63-.43-4.66-1.95-6.07-4.56-1.42-2.62-1.62-5.13-.62-7.52.79-1.89,2.15-3.35,4.08-4.4,2.16-1.17,4.36-1.41,6.6-.72,2.23.72,3.89,2.16,4.96,4.35ZM348.26,110.11c-.72-1.33-1.95-1.98-3.68-1.94-1.42.04-3.18.62-5.27,1.75-2.48,1.34-4.08,2.77-4.8,4.29-.5,1.06-.46,2.13.14,3.23.4.74.91,1.26,1.54,1.56.8.38,1.8.48,2.99.28,1.2-.19,2.6-.73,4.22-1.6,1.92-1.04,3.27-2,4.03-2.87.76-.88,1.19-1.7,1.28-2.46s-.05-1.51-.45-2.24Z" style="fill:#005580;" />
          <path d="M359.95,133.64l-5.31,2.17-.18-.44c1.25-.9,2.06-1.95,2.43-3.16s.32-2.38-.15-3.53c-.39-.96-1.02-1.72-1.9-2.3-.88-.57-1.83-.86-2.87-.87-1.33,0-2.69.27-4.09.84-1.37.56-2.55,1.24-3.53,2.05-.99.81-1.61,1.7-1.89,2.67-.28.97-.17,2.05.31,3.22.39.96.97,1.76,1.72,2.39s1.82,1.18,3.22,1.65l-1.32.54c-1.25-.49-2.26-1.12-3.05-1.89s-1.43-1.77-1.94-3.01c-.67-1.63-.93-3.22-.8-4.76s.68-2.9,1.62-4.09c.95-1.19,2.11-2.07,3.5-2.64,1.46-.6,3-.78,4.63-.55,1.62.23,3.06.85,4.32,1.85,1.25,1,2.18,2.24,2.78,3.7.44,1.08.67,2.31.69,3.7.01.8.06,1.3.13,1.49.1.24.27.41.52.52s.58.11.98,0l.18.45Z" style="fill:#005580;" />
          <path d="M347.28,148.33l-.43.14-2.64-8.24.43-.14.17.52c.15.46.35.8.6,1.03.17.17.41.26.71.29.21.03.71-.09,1.51-.34l10.37-3.32c.81-.26,1.3-.46,1.47-.61s.29-.38.36-.69c.07-.31.03-.68-.11-1.12l-.17-.52.43-.14,2.64,8.24-.43.14-.17-.52c-.15-.46-.35-.8-.6-1.03-.17-.17-.41-.27-.71-.3-.21-.03-.71.09-1.5.34l-10.37,3.32c-.81.26-1.3.46-1.47.62-.17.15-.29.38-.36.69-.07.31-.03.68.11,1.12l.16.52Z" style="fill:#005580;" />
          <path d="M353.72,156.4l-1.35-5.69-1.73-.31c-.58-.1-1.03-.11-1.37-.03-.45.11-.74.37-.87.78-.08.24-.05.79.09,1.65l-.44.1-1.27-5.36.44-.1c.22.56.58.98,1.06,1.26s1.4.55,2.76.8l14.22,2.72.05.23-11.83,8.93c-1.12.85-1.8,1.49-2.04,1.92-.18.33-.23.74-.16,1.24l-.44.1-1.84-7.79.44-.1.08.32c.15.63.34,1.04.57,1.26.17.14.37.19.61.13.14-.03.28-.09.42-.17.07-.03.34-.22.81-.57l1.79-1.32ZM354.5,155.79l4.98-3.71-6.13-1.16,1.15,4.87Z" style="fill:#005580;" />
          <path d="M368.84,174.61l-4.43.65-.06-.43c.99-.41,1.68-.8,2.08-1.18.4-.38.69-.86.88-1.45.1-.33.09-.87-.02-1.64l-.18-1.22-12.63,1.84c-.84.12-1.35.24-1.55.37s-.35.33-.47.62-.14.67-.07,1.14l.08.54-.45.07-1.25-8.58.45-.07.08.54c.07.48.21.85.42,1.11.14.19.36.33.65.41.21.06.72.03,1.54-.09l12.63-1.84-.17-1.18c-.16-1.1-.51-1.87-1.05-2.3-.75-.61-1.75-.91-2.98-.92l-.07-.46,4.43-.65,2.14,14.72Z" style="fill:#005580;" />
          <path d="M353.4,185.34l-.45.03-.62-8.63.45-.03.04.55c.03.48.15.86.34,1.14.13.2.34.35.62.45.2.08.72.08,1.54.02l10.86-.79c.84-.06,1.37-.14,1.57-.25.21-.1.38-.3.52-.58.14-.28.19-.66.16-1.12l-.04-.55.45-.03.62,8.63-.45.03-.04-.55c-.03-.48-.15-.86-.34-1.14-.13-.2-.34-.36-.62-.46-.2-.08-.72-.08-1.54-.02l-10.86.79c-.84.06-1.37.15-1.57.25s-.38.3-.51.59-.19.66-.16,1.12l.03.55Z" style="fill:#005580;" />
          <path d="M369.84,194.13c.05,2.64-.75,4.77-2.41,6.39s-3.72,2.41-6.18,2.37c-2.1-.03-3.94-.68-5.51-1.93-2.09-1.66-3.11-3.98-3.06-6.95.05-2.98,1.09-5.26,3.14-6.86,1.62-1.26,3.52-1.87,5.71-1.84,2.46.04,4.49.91,6.1,2.61,1.6,1.71,2.34,3.77,2.21,6.21ZM369.05,194.27c.02-1.51-.73-2.68-2.26-3.49-1.26-.66-3.08-1.01-5.45-1.05-2.82-.05-4.92.42-6.29,1.39-.96.68-1.44,1.64-1.46,2.88-.01.84.18,1.54.58,2.11.51.72,1.33,1.29,2.47,1.71,1.14.42,2.62.64,4.46.67,2.19.04,3.83-.14,4.92-.53s1.87-.9,2.33-1.52c.45-.63.69-1.35.7-2.17Z" style="fill:#005580;" />
          <path d="M368.78,209.96l-11.13,6.94,7.07.81c.99.11,1.67.05,2.05-.2.51-.33.81-.96.9-1.87l.45.05-.62,5.43-.45-.05c-.01-.71-.07-1.19-.18-1.44s-.32-.47-.63-.64c-.3-.17-.84-.3-1.62-.39l-13.69-1.57.05-.41,14.97-9.55-10.45-1.2c-.95-.11-1.61.03-1.99.43s-.6.87-.67,1.43l-.04.39-.45-.05.67-5.83.45.05c-.1.91.02,1.56.34,1.96s.92.65,1.79.75l11.61,1.33.48-.3c.48-.3.8-.57.97-.82s.29-.63.36-1.13l.45.05-.69,5.83Z" style="fill:#005580;" />
        </g>
      </g>
      <g id="h">
        <path d="M147.13,189.44l10.24-24.88h15.36v1.03h-1.22c-1.11,0-2,.19-2.67.58-.46.26-.83.7-1.11,1.31-.2.45-.31,1.6-.31,3.48v24.88c0,1.93.1,3.14.31,3.62.2.48.62.9,1.25,1.27.63.36,1.48.54,2.53.54h1.22v1.03h-19.71v-1.03h1.22c1.11,0,2-.19,2.67-.58.46-.26.83-.71,1.11-1.34.2-.45.31-1.61.31-3.51v-27.97l-14.47,34.43h-.67l-14.7-34.18v26.58c0,1.86.05,3,.14,3.42.24.93.77,1.68,1.57,2.27.81.58,2.07.88,3.8.88v1.03h-12.91v-1.03h.39c.83.02,1.61-.12,2.34-.4.72-.29,1.27-.67,1.64-1.15s.66-1.16.86-2.03c.04-.2.06-1.15.06-2.84v-23.88c0-1.91-.1-3.1-.31-3.58-.2-.47-.62-.89-1.25-1.25s-1.48-.54-2.53-.54h-1.2v-1.03h15.42l10.62,24.87Z" style="fill:#fff; stroke:#005580; stroke-miterlimit:10;" />
        <path d="M209.65,163.69v13.08h-1.09c-.82-3.41-2.34-6.03-4.56-7.85-2.23-1.82-4.75-2.73-7.57-2.73-2.36,0-4.52.68-6.48,2.03-1.97,1.35-3.41,3.13-4.31,5.32-1.17,2.8-1.75,5.92-1.75,9.35s.43,6.45,1.28,9.23c.85,2.77,2.19,4.87,4.01,6.29,1.82,1.42,4.17,2.13,7.07,2.13,2.38,0,4.55-.52,6.53-1.56s4.06-2.83,6.25-5.37v3.26c-2.12,2.21-4.32,3.81-6.61,4.8s-4.97,1.49-8.03,1.49c-4.03,0-7.6-.81-10.73-2.42s-5.54-3.93-7.24-6.96c-1.7-3.02-2.55-6.24-2.55-9.66,0-3.6.94-7.01,2.83-10.24s4.43-5.73,7.63-7.51c3.2-1.78,6.6-2.67,10.2-2.67,2.65,0,5.46.58,8.4,1.73,1.71.67,2.79,1,3.26,1,.59,0,1.11-.22,1.54-.65s.72-1.13.85-2.07h1.07v-.02Z" style="fill:#fff; stroke:#005580; stroke-miterlimit:10;" />
        <path d="M246.56,164.56v10.21h-1c-.59-2.36-1.25-4.05-1.98-5.08-.72-1.03-1.72-1.85-2.98-2.46-.71-.33-1.94-.5-3.7-.5h-2.81v29.11c0,1.93.11,3.14.32,3.62s.63.9,1.25,1.27c.62.36,1.47.54,2.55.54h1.25v1.03h-19.76v-1.03h1.25c1.09,0,1.98-.19,2.64-.58.48-.26.86-.71,1.14-1.34.2-.45.31-1.61.31-3.51v-29.11h-2.73c-2.54,0-4.39.54-5.54,1.61-1.61,1.5-2.63,3.65-3.06,6.43h-1.06v-10.21h33.91Z" style="fill:#fff; stroke:#005580; stroke-miterlimit:10;" />
        <path d="M265.94,191.55h-13.33l-1.59,3.67c-.52,1.22-.78,2.24-.78,3.03,0,1.06.43,1.84,1.28,2.34.5.3,1.73.52,3.7.67v1.03h-12.55v-1.03c1.35-.2,2.47-.77,3.34-1.68.87-.92,1.95-2.81,3.23-5.69l13.5-30.11h.53l13.61,30.95c1.3,2.93,2.37,4.78,3.2,5.54.63.58,1.52.91,2.67,1v1.03h-18.26v-1.03h.75c1.46,0,2.5-.2,3.09-.61.41-.3.61-.72.61-1.28,0-.33-.06-.68-.17-1.03-.04-.17-.32-.86-.83-2.09l-2-4.71ZM264.99,189.49l-5.62-13-5.79,13h11.41Z" style="fill:#fff; stroke:#005580; stroke-miterlimit:10;" />
        <ellipse cx="193.86" cy="87.36" rx="20.06" ry="20.33" style="fill:#f9c900; stroke:#005580; stroke-miterlimit:10; stroke-width:4px;" />
      </g>
    </g>
  </g>
</svg>
