<?xml version="1.0" encoding="UTF-8"?>
<svg id="Layer_1" data-name="Layer 1" xmlns="http://www.w3.org/2000/svg" version="1.1" viewBox="0 0 401 405.1">
  <defs>
    <style>
      .cls-1, .cls-2 {
        fill: #fff;
      }

      .cls-1, .cls-2, .cls-3, .cls-4 {
        stroke: #000;
        stroke-miterlimit: 10;
      }

      .cls-2, .cls-3, .cls-4 {
        stroke-width: 4px;
      }

      .cls-3 {
        stroke-linecap: round;
      }

      .cls-3, .cls-4 {
        fill: none;
      }

      .cls-5 {
        fill: #000;
        stroke-width: 0px;
      }
    </style>
  </defs>
  <g id="Logo">
    <g id="L">
      <path class="cls-4" d="M347,204.5c0,37.8-14.3,72.3-37.8,98.3-1.5-.6-3.2-1.1-5-1.6-6.5-1.7-20.9-3.9-27.6-4.6-6.7-.7-17.8-.7-25.3,2.1-4.8,1.8-7.1,5.9-7.2,8.7-.3,4.2,4.3,6,4.1,8.8-.2,2.8-2.7,4.5-6.8,7.1-2.8,1.6-11.6,4.4-18.3,6.7-6.8,2.4-14.5,2.7-22.2,3.2-7.2.6-19-1.1-27.4-2.8-9.7-1.9-22.7-8.8-22.7-8.8,0,0-3.1-1.7.7-4.9,3.1-3.1,5.5-4.4,7-6,.7-.7,1-2.1.7-3-1.2-3.7-6.2-11.8-25.5-11.7-13.8.1-29.7,4.3-41.2,8.1-24.2-26.2-39-61.2-39-99.7,0-81.1,65.7-146.8,146.8-146.8s146.8,65.7,146.8,146.8Z"/>
      <circle class="cls-4" cx="200.2" cy="203.7" r="193.1"/>
      <path class="cls-4" d="M323.2,314.5l-9.5,3.4-12,4c-.2,0-.3.4-.2.5,1.5,1.7,7.5,8.9,9,10.9,1.6,2.2,3.7,8,3.9,11.9.2,3.5-5.8,0-5.8,0,0,0-11.4-4.6-15.1-5.8-6.8-2.2-14.4-2.7-14.4-2.7,0,0-6.6,0-8.3,2.5-1.6,2.3-3,3-1.8,5.1,1.2,2.1,3.7,2.5,6,3.2s6.1.2,6.7,2.5c.9,3.5-4.6,8.1-6.4,9.8-1.9,1.6-8.2,5.5-10.1,6.6-1.8,1.2-12.2,4.6-15.2,5.5-3,.9-20.4,4.2-24.8,4.8-8.3,1.1-37.8.9-48.2,0-8.2-.7-33.1-6.5-39.4-9.3-6.3-2.8-13.7-5.8-15.3-10.9-1.6-5.1.7-7.2,1.9-8.1.7-.6,3.1-.5,4.9-.4,1.3,0,2.2-1.3,1.7-2.5-.5-1.1-1.5-2.5-3.3-3.7-3.5-2.3-11.8-3.5-21.6-.1-12.4,4.2-21.7,13.3-21.7,13.3,0,0-.1-8,5-15.4,5.1-7.4,13.2-15.1,13.2-15.1l-25.6-14.7s6.4-2.8,15.8-5.8c11.5-3.8,27.4-8,41.2-8.1,19.3-.2,24.2,7.9,25.5,11.7.3,1,0,2.3-.7,3-1.5,1.6-3.9,2.8-7,6-3.8,3.2-.7,4.9-.7,4.9,0,0,13,6.9,22.7,8.8,8.4,1.7,20.2,3.3,27.4,2.8,7.7-.6,15.5-.8,22.2-3.2,6.7-2.4,15.5-5.1,18.3-6.7,4.2-2.6,6.6-4.3,6.8-7.1.2-2.8-4.4-4.6-4.1-8.8.2-2.8,2.5-6.9,7.2-8.7,7.4-2.8,18.5-2.8,25.3-2.1,6.7.7,21.1,3,27.6,4.6,1.8.5,3.5,1,5,1.6,8.7,3.4,12.9,8.4,14.4,10.4.3.4.1,1.1-.4,1.2Z"/>
      <polygon class="cls-4" points="295.2 260.9 105.2 260.9 146.7 189.2 182 128.3 207.2 164.3 245.8 112.1 268.4 180.1 279.7 214.2 281.7 220.1 295.2 260.9"/>
      <line class="cls-3" x1="236.9" y1="75.6" x2="216.6" y2="86.2"/>
      <line class="cls-3" x1="238.1" y1="64.7" x2="214.9" y2="81.8"/>
      <line class="cls-3" x1="220.3" y1="65.9" x2="208.6" y2="78.1"/>
      <line class="cls-3" x1="207.6" y1="60.2" x2="203.1" y2="75.6"/>
      <line class="cls-3" x1="199" y1="63.3" x2="197" y2="74.3"/>
      <path class="cls-3" d="M190.4,59.1c.2.5,2.6,16.5,2.6,16.5"/>
      <line class="cls-3" x1="185.9" y1="65.9" x2="189.8" y2="77.9"/>
      <line class="cls-3" x1="177.1" y1="60.2" x2="187.8" y2="77.1"/>
      <line class="cls-3" x1="177.1" y1="70.6" x2="185.5" y2="80.9"/>
      <line class="cls-3" x1="159.7" y1="64.7" x2="183.6" y2="81.8"/>
      <line class="cls-3" x1="159.7" y1="74.3" x2="180.5" y2="88"/>
      <line class="cls-3" x1="127.5" y1="83.9" x2="179.5" y2="91.2"/>
      <line class="cls-3" x1="142.5" y1="98.1" x2="178.9" y2="95.9"/>
      <line class="cls-3" x1="125.6" y1="112.9" x2="178.9" y2="101.3"/>
      <line class="cls-3" x1="150.7" y1="118.2" x2="180.5" y2="105.1"/>
      <line class="cls-3" x1="136.4" y1="151.4" x2="182.2" y2="107.1"/>
      <line class="cls-3" x1="170.9" y1="134.3" x2="186.9" y2="112.1"/>
      <line class="cls-3" x1="187.7" y1="136" x2="193" y2="115.3"/>
      <line class="cls-3" x1="197" y1="148.9" x2="199" y2="116.2"/>
      <line class="cls-3" x1="208.6" y1="141.5" x2="204.9" y2="115.3"/>
      <line class="cls-3" x1="218" y1="141.5" x2="207.6" y2="114.3"/>
      <line class="cls-3" x1="225.5" y1="131.4" x2="210" y2="112.9"/>
      <line class="cls-3" x1="230.5" y1="124.6" x2="214.5" y2="108.8"/>
      <line class="cls-3" x1="227.6" y1="111.6" x2="216.9" y2="105.1"/>
      <line class="cls-3" x1="248" y1="110.2" x2="219" y2="98.1"/>
      <line class="cls-3" x1="257.6" y1="95" x2="219" y2="94.1"/>
      <line class="cls-3" x1="274.8" y1="83" x2="219" y2="89.3"/>
    </g>
    <g id="F">
      <path class="cls-5" d="M341.5,269l-.4.8-.8.3-.8.9h-1.1c0-.1-.9,0-.9,0l-.7-.4h-1c0-.1-.1.5-.1.5l-2.1.6-.8.6-1,.2-.3.8h-.8c0-.1-.9-.1-.9-.1l-.4.4h-.6s-.8.6-.8.6l-.2.8v.9l-1.6,1.2-1.1,1.3v1.1l-.5,1.2h-.5c0,0-.8-.9-.8-.9h-1.3c0,.1-.3-.5-.3-.5h-.9s-.4-.4-.4-.4l-.8.4-.8-.2-.6.3-1.9-.6-1.1-.5v1.2l.7.8.2.8.7,1h-.7c0,.1-1.2-.5-1.2-.5l-2.9-.4-.5.5-.5,2-.5.7v1.4l-.7,1.3-.6.4.4.9v1.2h-.5c0,0-.8-.4-.8-.4h-3.6c0,0-1.4.7-1.4.7l-.5-.8-2.2-.2-.8-.9v.4l-.8-.2h-.7l-.7-.4.8-.6.2-1.6-1.2-.7h-1.3c0,0-.3,1-.3,1h-1l-5.4-1.8-2-1-.3.4-.6-.3.2-.8-1.5-.7v-1s1.1.7,1.1.7l.8-.6h-1l-2.1-.9-.8-1.1v1.2c.1,0-.6.6-.6.6l-.3-.6h-1.3c0,0-.2-.5-.2-.5h-1c0-.1-.8-1-.8-1h-.9s-.2-2.1-.2-2.1l-2.3-1.1-.4-.5-2.2-.7-.6.2-1.2-.8h-1.8l-.4.6-.8-.4-.5.7-.8-.8h-1.3c0,0-2.4,2.1-2.4,2.1l-.8-.3v-.7h-3.2c0-.1-.4-.4-.4-.4h-1.8c0-.1-.4.1-.4.1l-2.2.2-.5.6v-.7c-.1,0-.8.5-.8.5l-.5-.3-.3.5-1.1-.2-.7-.6h-1.8c0,.1-.5.7-.5.7h-1.1s0,.4,0,.4l-2.9.5-.8-.4h-1s-.5-.9-.5-.9l-.8.6.5,1.2-.4.4-.2.9.2.8-.8-.3v-.8l-1.8-.3v-.5l-.6-.4-.9.5.3.4-1,.7-.2,1-1,.2-.7-.6-1,.2v.8c-.1,0-1.1-.2-1.1-.2v.6h-.8c0-.1-.7.4-.7.4l-1.3-.5-.2-1.5-.9-.7-.8.9-.5-1.6.7-1.5,1-.2-.3-.7-1.9.2-.6.2h-.8c0,0-.8,1.2-.8,1.2h-.6s-.5,1.2-.5,1.2l-2.8.6-.9-.4h-.8c0,0-.8.4-.8.4l-.2.9h-1.6s-.9.2-.9.2h-.9l.6-.7-.3-1.3-.9.5-.3-.6-.5.3h-.8c0,0-.6-.7-.6-.7h-1c0-.1-.9-1.8-.9-1.8l-.4,1.1-.4-.4h-.9s-1-.5-1-.5l-.9.2-.8-.2-.4-.8-.9.8-.5-.6-1.2.3-.6-.5-.4.2-.3-.6h-.6s-.5-.3-.5-.3l-.6.3-1.3-.2-.4-.3.4-.8-1.7-.8-.5-.6h-.9v.6h-.8s-.1.6-.1.6l-3.8-.6h-1.8c0,.1-.5.2-.5.2h-.7s-.5.4-.5.4h-3.2s-.2.3-.2.3l-6.2-.4-.3.7-1.2-.2-1.4.6h-1.7c0,0-.5.4-.5.4h-.8s-.2,0-.2,0l-.4.2-.6.2h-.5s-.4.3-.4.3h-1.4c0,0-1,.5-1,.5h-.8l-.5-.2-.2.4-.6.3-.8.3h-.6s-.6,0-.6,0h-1.2c0,0-.8-.4-.8-.4l-2,.2-.6.5-.6-.2-.3.4-.7-.3-.5.3-.8-.4h-2.1v-.9l-.5.6-.8-.2v-.6l-.8-1h-1.3s0-.6,0-.6l-.4.5h-1s-.7.5-.7.5l-.4.9-.8.4-1.3-.2.7.7-.3.3h-1.3s0-.7,0-.7h-.8c0,.1-.6-.8-.6-.8l-.6,1.1-.4-.5-.4,1-.8-.9h-.7c0,.1,0-.9,0-.9l-.8-.3v1h-.7v-1.9l-.3-.6-.5.4-.6-1v1.4l-.9-.3.2,1-2.6.2-.4-.6-.4.4-.7-.2-1.8.4-.3-.2-5.5.2-1-.5v.7h-1s-1,1.1-1,1.1l-2.3.7h-1.3v1h-1l-1.8-.6-1.3-1-3.5-.5-3.6-3.4h-1.4c0,.1-.4.6-.4.6l-4-1.3-.6.5-.7-.4-.6-.3h-.9s-.7-.4-.7-.4l-.7.6-.6-.6h-.6l-.6-.5h-1.2l-1.9-1.3-4.3-.5-1,.2-2.4-1.5-1-.3-1.9-1.3-.4-.8-1.7-.3-1.7-.8-1.5-1.3-.8.4-1.5-.4-.2-1.6-1.1-.9-1.2.2-.5,1-.5-1.4-.6.7-2.9-1-1.5,1v.8c-.1,0-.7.5-.7.5l-.8.2-1.2-.5-.3.3-2.7-1.3.9-1.1v-1.3s-1.2-2.5-1.2-2.5v-.5s-.4-.2-.4-.2l-.3-.7v-3.1l.3-.6.2-1.3v-1.5l.8-3,.8-1.4,1-1.2-.3-.9v-2l.6-.4-.2-.8.5-.2v-1.4c.1,0-.6-2.2-.6-2.2l.4-.2h1.7l1-.7.5-1.1,1.1-.6.3-1.1,1-.9,1.1-.5,1.3-.3,1.8.3,1.3.6.5-.7,2.2.2.4-.8.7-.8.2-.8-.3-.9-1.1-.7-1.1-.2-1.5-.9-.7-.2-.7-.8-.4-1.4-.6-.6-.8-2.5-1.5-1.5-.3-.7-1-.9-.9-2.1v-1.5s1.1.1,1.1.1v-.5c0,0-.4-.7-.4-.7v-.9s.6-.3.6-.3l.9.4.4.9,1,.3.7-1.1h1.3c0,0-.2-.8-.2-.8l-.6-.3-.4-.8.2-.9.6-.3.7.5.3-.7-.4-.7h-.9s-.4-1-.4-1l.5-.8s.2-1.4.2-1.5c0,0,.6-.5.6-.5l.7.6h.8l.7-.6.5-.9.5-.4h1.3c0,.1.8-.3.8-.3l.8-1.9v-1.8c-.1,0-.3-.5-.3-.5l.4-.6h1.5c0,0,1.8-.6,1.8-.6l.5-1.2,1.3-.2.8-1.3,1.4-1.2.5-1.5h.7s.5-.7.5-.7l1.4-.7h1.4c0-.1,3.9,1.1,3.9,1.1l1.3-.8,1.2.2,5-.6,2.4-1.2.7-.4,1,.5.8-.7.8.2.4-1.6.7-.3v-.6s.8-.4.8-.4v-.4s.8-.5.8-.5l.8.3.9-.5,1.1.2.4-.6h.6c0,0,.5.7.5.7l1.7.8-.2,1,1.5.3.4-.9h1.9c0,.1,0-.5,0-.5l1-.8.9-.3.9.2v.6l1.2.4.3,1.1,1.9,3,2,1.4v.8c-.1,0-1.2,1.6-1.2,1.6l-.6.2.4.4-.6,1.1h-.7v.9l-.6.2v.8s1.4-.2,1.4-.2l.9-1.3.6-.3.7-1.3,1-1.1,1.1-.4v-1c-.1,0,.6-1,.6-1l2.8.3.4.5,1.3.3v1.9l-1.5,1.1.3,1.3-.2.5,1.6.7v-1.3s1-.9,1-.9h.6c0-.1.8-1.1.8-1.1h2.4v-.6c.1,0,1.8-.9,1.8-.9l.8-1.3h1c0-.1,0,.7,0,.7h.9s.6-.9.6-.9h.9s.2,0,.2,0l-41.5,71.7h190.1l-13.6-40.8h0c0-.1.7-.3.7-.3l.3-.8,1.3-.3.2-.7,1-.2v-.6s1.6-1.7,1.6-1.7h.6c0-.1,0,.7,0,.7l.7-.3,1.3-.3.7.6,1.1-.2.4-.6h1.3c0-.1,1.7-1.4,1.7-1.4l.7.5h1.6c0-.1,1-.7,1-.7l1.2-1.5.8-.5v-.4c.1,0,1.6-.4,1.6-.4l.2,1.2h2.3l.2.8,1.7.3,1,1.4-1,.9.3,2.5,1.6.2,1.4.4.2.8.8.4,1.3,2.5v.7s.7,1.9.7,1.9l1.9,1.1h1c0-.1.8.3.8.3h1.7l.3.2v2.9s.4.4.4.4l-.3.4.2,1.1,1.4,1h.9c0,0,.1.3.1.3l1.2.4.4-1.1,2-.4.9-.7.5-1.5,1.3-.7h.6c0,0,.2,3.1.2,3.1l-1,.5-.2.9v1.9c-.1,0-2.1,1.9-2.1,1.9l-1.3.5-.3.6-2.3,1.3-1.4,2.4v1s.7-.1.7-.1l.3-.7h.6s.3.9.3.9l.3-.6h.8c0-.1.3.8.3.8v1.3c-.1,0,.3.2.3.2v1.8s.6.6.6.6l-.4.8.5.4.5-.6,1.1-.2-.2-1.3.9.6.3,1,1-1.4.6-.3-.4,1.2.3.9,1,1.1v-.7c0,0,.6-.3.6-.3l1.5,1.1,1.1,1.7.5.4h.8s.6,1.4.6,1.4l.5-.7,1.5-.2-.4.7.6.6v.9s.4,0,.4,0l.5.8v1c0,0,1.3.9,1.3.9l1-.3,1.1.7.2,1.5-.3.5v.8l.2.7.2.5v.4c.1,0,.6.7.6.7l-.2.9h-1c0,.1-1.1.8-1.1.8l.9,1-.4.8h-.8c0,0-.2.7-.2.7l.6.5v1.2c.1,0,1.5,0,1.5,0l.2.5,1.3.8Z"/>
      <polygon class="cls-5" points="279.7 214.2 268.4 180.1 268.6 180.1 270 180.9 271.5 180.5 273.9 178.9 275.3 178.7 276.7 179.4 277.7 179.5 277.7 178.6 278.6 178.4 280.8 176 281.7 175.8 282 176.7 285.8 176.6 287.5 177.5 287.9 177.2 289.4 177.3 290.4 176.8 290.8 177.2 290 177.7 290.1 178.5 290.6 179.1 290.3 179.6 289.8 179.8 290.1 180.6 289.4 181.1 289 181.1 288 181.9 288 182.5 287.2 183.3 286.2 183.7 285.1 183.8 285.2 184.5 284.6 184.1 283.8 184.8 283.9 185.6 282.3 185.9 281.7 186.9 281.2 187.2 280.5 187.8 280.7 189 280.2 189.1 279.6 190.1 280.1 191.9 280.1 193.3 280.6 194 282 194.3 282.9 193.3 283.8 194.2 285.7 193.8 286.2 194.1 286.1 195 285.7 195 285.2 196 284.3 196.2 283.1 197.7 282.5 197.7 282 198.3 282.2 198.8 282.2 200.2 281.6 200.7 281.6 201.2 281.2 202.3 280.6 202.6 280.5 203.8 279.5 204.2 279.7 205 279.3 205.2 279.4 207.6 280.2 208.5 279.8 209.7 280.1 210.9 280.8 211.9 280.8 213.2 280.2 214.1 279.7 214.2"/>
      <polygon class="cls-5" points="116.2 254.2 182.2 140.1 205.2 176 241.4 129.4 284.2 254.2 116.2 254.2"/>
    </g>
    <g id="LF">
      <path class="cls-1" d="M152.2,198l10.2-24.9h15.4v1h-1.2c-1.1,0-2,.2-2.7.6-.5.3-.8.7-1.1,1.3-.2.4-.3,1.6-.3,3.5v24.9c0,1.9.1,3.1.3,3.6.2.5.6.9,1.2,1.3.6.4,1.5.5,2.5.5h1.2v1h-19.7v-1h1.2c1.1,0,2-.2,2.7-.6.5-.3.8-.7,1.1-1.3.2-.4.3-1.6.3-3.5v-28l-14.5,34.4h-.7l-14.7-34.2v26.6c0,1.9,0,3,.1,3.4.2.9.8,1.7,1.6,2.3.8.6,2.1.9,3.8.9v1h-12.9v-1h.4c.8,0,1.6-.1,2.3-.4.7-.3,1.3-.7,1.6-1.1s.7-1.2.9-2c0-.2,0-1.1,0-2.8v-23.9c0-1.9-.1-3.1-.3-3.6-.2-.5-.6-.9-1.2-1.2s-1.5-.5-2.5-.5h-1.2v-1h15.4l10.6,24.9Z"/>
      <path class="cls-1" d="M214.8,172.3v13.1h-1.1c-.8-3.4-2.3-6-4.6-7.9-2.2-1.8-4.8-2.7-7.6-2.7s-4.5.7-6.5,2c-2,1.4-3.4,3.1-4.3,5.3-1.2,2.8-1.8,5.9-1.8,9.4s.4,6.4,1.3,9.2c.9,2.8,2.2,4.9,4,6.3,1.8,1.4,4.2,2.1,7.1,2.1s4.6-.5,6.5-1.6,4.1-2.8,6.2-5.4v3.3c-2.1,2.2-4.3,3.8-6.6,4.8s-5,1.5-8,1.5-7.6-.8-10.7-2.4-5.5-3.9-7.2-7c-1.7-3-2.6-6.2-2.6-9.7s.9-7,2.8-10.2,4.4-5.7,7.6-7.5c3.2-1.8,6.6-2.7,10.2-2.7s5.5.6,8.4,1.7c1.7.7,2.8,1,3.3,1s1.1-.2,1.5-.6.7-1.1.9-2.1h1.1Z"/>
      <path class="cls-1" d="M251.7,173.1v10.2h-1c-.6-2.4-1.2-4.1-2-5.1-.7-1-1.7-1.9-3-2.5-.7-.3-1.9-.5-3.7-.5h-2.8v29.1c0,1.9.1,3.1.3,3.6s.6.9,1.2,1.3c.6.4,1.5.5,2.6.5h1.2v1h-19.8v-1h1.2c1.1,0,2-.2,2.6-.6.5-.3.9-.7,1.1-1.3.2-.4.3-1.6.3-3.5v-29.1h-2.7c-2.5,0-4.4.5-5.5,1.6-1.6,1.5-2.6,3.6-3.1,6.4h-1.1v-10.2h33.9Z"/>
      <path class="cls-1" d="M271,200.1h-13.3l-1.6,3.7c-.5,1.2-.8,2.2-.8,3s.4,1.8,1.3,2.3c.5.3,1.7.5,3.7.7v1h-12.6v-1c1.4-.2,2.5-.8,3.3-1.7.9-.9,1.9-2.8,3.2-5.7l13.5-30.1h.5l13.6,30.9c1.3,2.9,2.4,4.8,3.2,5.5.6.6,1.5.9,2.7,1v1h-18.3v-1h.8c1.5,0,2.5-.2,3.1-.6.4-.3.6-.7.6-1.3s0-.7-.2-1c0-.2-.3-.9-.8-2.1l-2-4.7ZM270.1,198.1l-5.6-13-5.8,13h11.4Z"/>
      <ellipse class="cls-2" cx="199" cy="95.9" rx="20.1" ry="20.3"/>
      <path class="cls-5" d="M37.7,219.8l-11.4-3.2-.8-6.7h.5c0,0,0,.5,0,.5,0,.5.2.9.4,1.1.1.2.3.3.6.4.2,0,.7,0,1.5,0l10.8-1.2c.8-.1,1.4-.2,1.6-.3s.4-.3.5-.6.2-.7.1-1.1v-.5c0,0,.4,0,.4,0l1,8.6h-.5c0,0,0-.5,0-.5,0-.5-.2-.9-.4-1.1-.1-.2-.3-.3-.6-.4-.2,0-.7,0-1.5,0l-12.2,1.4,15.7,4.6v.3s-14.1,8.1-14.1,8.1l11.6-1.3c.8,0,1.3-.2,1.5-.2.4-.1.7-.4.9-.8s.3-.9.2-1.7h.5c0,0,.6,5.6.6,5.6h-.5c0,0,0-.1,0-.1,0-.4-.1-.7-.3-1s-.4-.5-.6-.7c-.2-.1-.5-.2-.9-.3,0,0-.5,0-1.2.1l-10.4,1.2c-.8,0-1.4.2-1.5.3-.2.1-.4.3-.5.6s-.2.7-.1,1.1v.5c0,0-.4,0-.4,0l-.8-6.7,10.3-5.9Z"/>
      <path class="cls-5" d="M26.6,202.4h6.7c0,.1,0-.2,0-.2,0-1.1-.3-1.8-1-2.3-.6-.5-1.6-.8-2.9-.9v-.5s8.7.1,8.7.1v.5c-1,0-1.7.3-2.3.6-.6.3-1,.7-1.2,1.1s-.3,1-.3,1.8h4.7c.9.1,1.5,0,1.7,0,.2,0,.4-.2.5-.4.1-.2.2-.6.2-1v-1c0-1.6-.3-2.8-1-3.7-.7-.9-1.8-1.6-3.2-2.1v-.4s5.3.8,5.3.8l-.2,14.3h-.5s0-.6,0-.6c0-.5,0-.9-.2-1.2-.1-.2-.3-.4-.6-.5-.2,0-.7-.1-1.5-.2l-10.9-.2c-.8,0-1.2,0-1.4,0-.3,0-.5.2-.7.4-.2.3-.4.7-.4,1.3v.6s-.5,0-.5,0l.2-13.9h4.9c0,0,0,.5,0,.5-1.2.2-2.1.5-2.6.9s-.9,1-1.2,1.8c-.1.4-.2,1.3-.3,2.6v1.7Z"/>
      <path class="cls-5" d="M27,175.6l5.8.6v.4c-1.7.4-3,1.1-3.9,2.1-.9,1-1.5,2.1-1.6,3.4-.1,1.2.1,2.3.7,3.2s1.5,1.6,2.7,2c1.2.5,2.5.8,3.8.9,1.6.2,3,.1,4.2-.1s2.2-.8,2.8-1.5c.6-.8,1-1.7,1.1-2.9,0-.4,0-.8,0-1.2s-.1-.9-.2-1.3l-3.4-.4c-.7,0-1.1,0-1.3,0s-.4.2-.6.5-.3.6-.3,1v.4s-.5,0-.5,0l.8-8h.5c0,.7,0,1.1.1,1.3s.3.5.6.6c.2,0,.5.2,1.1.2l3.4.4c.4,1.1.6,2.2.7,3.4.1,1.2.1,2.4,0,3.6-.2,1.6-.5,2.8-1,3.8s-1.2,1.8-2,2.6-1.6,1.2-2.5,1.6c-1.2.4-2.5.6-3.8.5-2.5-.3-4.5-1.3-6-3.3s-2.2-4.2-1.9-6.8c0-.8.2-1.6.4-2.2.1-.4.4-.9.7-1.7.4-.8.6-1.2.6-1.4,0-.2,0-.4-.2-.7-.1-.2-.4-.4-.9-.6v-.5Z"/>
      <path class="cls-5" d="M37.5,168.6l5,1.1c.8.2,1.3.2,1.6.2.2,0,.5-.2.7-.4s.4-.6.5-1v-.5c.1,0,.6.1.6.1l-1.8,8.5h-.4c0-.1.1-.6.1-.6,0-.5,0-.9,0-1.2,0-.2-.2-.4-.5-.6-.2-.1-.7-.3-1.5-.5l-10.6-2.3c-.8-.2-1.4-.2-1.6-.2s-.5.2-.7.4c-.2.2-.4.6-.5,1v.6c-.1,0-.6-.1-.6-.1l1.8-8.5h.4c0,.1-.1.6-.1.6-.1.5-.1.9,0,1.2,0,.2.2.4.5.6.2.1.7.3,1.5.5l4.6,1,1.2-5.7-4.6-1c-.8-.2-1.4-.2-1.6-.2s-.5.2-.7.4-.4.6-.5,1v.5c-.1,0-.6-.1-.6-.1l1.8-8.4h.4c0,.1-.1.6-.1.6-.1.5-.1.9,0,1.2,0,.2.2.4.5.6.2.1.7.3,1.5.5l10.6,2.3c.8.2,1.3.2,1.6.2.2,0,.5-.2.7-.4s.4-.6.5-1v-.5c.1,0,.5.1.5.1l-1.8,8.4h-.4c0-.1.1-.6.1-.6,0-.5,0-.9,0-1.2,0-.2-.2-.4-.5-.6-.2-.1-.7-.3-1.5-.5l-5-1.1-1.2,5.7Z"/>
      <path class="cls-5" d="M46.3,148.3l-1.8,5.6,1.3,1.2c.4.4.8.6,1.2.8.4.1.8,0,1.2-.2.2-.2.5-.6.8-1.4h.4c0,.1-1.7,5.4-1.7,5.4h-.4c0-.7,0-1.3-.2-1.8-.3-.5-.9-1.2-1.9-2.1l-10.7-9.8v-.2c0,0,14.8-1.4,14.8-1.4,1.4-.1,2.3-.3,2.8-.6.3-.2.6-.5.8-1h.4c0,.1-2.5,7.7-2.5,7.7h-.4c0-.1,0-.4,0-.4.2-.6.3-1.1.2-1.4,0-.2-.2-.4-.5-.4-.1,0-.3,0-.5,0,0,0-.4,0-1,0l-2.2.2ZM45.3,148.4l-6.2.5,4.6,4.2,1.6-4.7Z"/>
      <path class="cls-5" d="M53.8,127.5l5,3-6,13.4-.4-.2.2-.5c.2-.4.3-.8.2-1.2,0-.2-.1-.5-.3-.7-.1-.2-.6-.4-1.3-.8l-9.9-4.5c-.8-.4-1.3-.5-1.5-.5-.2,0-.5,0-.7.3s-.5.5-.7.9l-.2.5-.4-.2,3.6-8.1.4.2-.3.7c-.2.4-.3.8-.2,1.2,0,.2.1.5.3.7.1.2.6.4,1.3.8l9.6,4.3c.8.4,1.3.5,1.5.5.2,0,.5-.1.7-.3.2-.2.4-.6.7-1.3l.6-1.3c.4-.8.5-1.5.5-2.2s-.3-1.3-.7-2c-.4-.7-1.2-1.4-2.2-2.3l.2-.5Z"/>
      <path class="cls-5" d="M59.7,119.2l-2.9,5.1,1,1.4c.3.5.7.8,1,1,.4.2.8.2,1.2,0,.2-.1.6-.6,1.1-1.3l.4.2-2.7,4.8-.4-.2c.2-.6.2-1.1,0-1.6s-.7-1.4-1.5-2.5l-8.5-11.7v-.2c.1,0,14.9,1.6,14.9,1.6,1.4.2,2.3.1,2.8,0,.4-.1.7-.4,1-.8l.4.2-4,6.9-.4-.2.2-.3c.3-.6.5-1,.4-1.3,0-.2-.1-.4-.3-.5-.1,0-.3-.1-.4-.2,0,0-.4,0-1-.1l-2.2-.3ZM58.7,119.1l-6.2-.7,3.7,5,2.5-4.3Z"/>
      <path class="cls-5" d="M62,94.3l.4.3c-.2.5-.4.9-.3,1.3,0,.5.4,1.6,1.2,3.2l2.9,6.4,3.3,2.3c.7.5,1.2.8,1.4.8.2,0,.5,0,.8-.1.3-.1.6-.4.8-.7l.5-.8.4.3-5.3,7.6-.4-.3.5-.7c.3-.4.4-.8.4-1.1,0-.2,0-.5-.2-.8-.1-.2-.5-.5-1.2-1l-2.7-1.9-8-.9c-1.6-.2-2.6-.2-3,0-.4.1-.7.4-1,.8l-.4-.3,4.5-6.5.4.3-.2.3c-.3.4-.4.7-.4.9s0,.4.2.5c.2.2,1,.3,2.4.5l6.2.7-2.4-5.3c-.6-1.3-1-2.1-1.4-2.3-.2-.1-.4-.1-.6,0-.3.1-.7.5-1.2,1l-.4-.3,2.9-4.1Z"/>
      <path class="cls-5" d="M76.4,95.7l-3.8,4.5.8,1.6c.3.5.5.9.8,1.1.4.3.7.4,1.2.2.2,0,.7-.4,1.3-1.1l.3.3-3.5,4.2-.3-.3c.3-.5.4-1.1.4-1.6s-.4-1.4-1-2.7l-6.3-13,.2-.2,14.2,4.2c1.3.4,2.3.6,2.8.5.4,0,.7-.2,1.1-.6l.3.3-5.1,6.1-.3-.3.2-.2c.4-.5.6-.9.7-1.2,0-.2,0-.4-.3-.6-.1,0-.2-.2-.4-.2,0,0-.4-.1-.9-.3l-2.2-.7ZM75.4,95.5l-5.9-1.8,2.7,5.6,3.2-3.8Z"/>
      <path class="cls-5" d="M86.7,68l3.9,4.2-.3.3c-1.3-.8-2.6-1.2-3.8-1.2-1.3,0-2.3.5-3.2,1.4-.8.7-1.2,1.6-1.5,2.6s-.2,2,.2,3c.5,1.2,1.2,2.4,2.2,3.5,1,1.1,2.1,1.9,3.2,2.6,1.1.6,2.2.9,3.2.8,1,0,2-.6,2.9-1.4.8-.7,1.3-1.5,1.6-2.4s.5-2.1.4-3.6l1,1.1c0,1.3-.2,2.5-.7,3.5-.4,1-1.2,2-2.1,2.9-1.3,1.2-2.7,2-4.2,2.4s-2.9.4-4.4,0-2.7-1.2-3.7-2.3c-1.1-1.2-1.8-2.5-2.2-4.1s-.3-3.2.2-4.7,1.3-2.8,2.5-3.9c.8-.8,1.9-1.4,3.2-2,.8-.3,1.2-.5,1.3-.7.2-.2.3-.4.3-.7s-.1-.6-.3-.9l.4-.3Z"/>
      <path class="cls-5" d="M95.5,61.3c2.1-1.7,4.2-2.3,6.5-2s4.2,1.5,5.7,3.4c1.3,1.7,1.9,3.5,1.8,5.5,0,2.7-1.2,4.9-3.6,6.7-2.4,1.8-4.8,2.4-7.3,1.7-2-.5-3.6-1.6-4.9-3.4-1.5-2-2-4.1-1.7-6.4s1.5-4.2,3.5-5.5ZM96.1,61.9c-1.2.9-1.7,2.2-1.4,3.9.2,1.4,1.1,3.1,2.5,5,1.7,2.3,3.3,3.6,4.9,4.1,1.1.3,2.2.1,3.2-.6.7-.5,1.1-1.1,1.3-1.8.3-.8.2-1.8-.2-3s-1.1-2.5-2.2-3.9c-1.3-1.8-2.5-2.9-3.4-3.6-1-.6-1.8-.9-2.6-.9-.8,0-1.5.3-2.2.8Z"/>
      <path class="cls-5" d="M122.5,56.8l2.4,5.3-12.6,7.6-.2-.4.5-.3c.4-.2.7-.5.9-.8.1-.2.2-.5.1-.8,0-.2-.2-.7-.7-1.4l-5.6-9.3c-.4-.7-.8-1.2-.9-1.3-.2-.1-.4-.2-.8-.2s-.7.1-1.1.4l-.5.3-.2-.4,7.6-4.5.2.4-.6.4c-.4.2-.7.5-.9.8-.1.2-.2.5-.1.8,0,.2.2.7.7,1.4l5.4,9c.4.7.8,1.2,1,1.3.2.2.5.2.8.2.2,0,.7-.3,1.3-.7l1.2-.7c.8-.5,1.3-1,1.7-1.5.3-.6.5-1.2.6-2s-.1-1.8-.5-3.2l.4-.2Z"/>
      <path class="cls-5" d="M136.5,50.2l1.9,5.5-13.3,6.3-.2-.4.5-.2c.4-.2.8-.5.9-.7.1-.2.2-.4.2-.7,0-.2-.2-.7-.5-1.5l-4.7-9.8c-.4-.8-.6-1.2-.8-1.4s-.4-.2-.7-.3c-.3,0-.7,0-1.1.3l-.5.2-.2-.4,8-3.8.2.4-.7.3c-.4.2-.8.5-.9.7-.1.2-.2.4-.2.7,0,.2.2.7.5,1.5l4.5,9.5c.4.8.6,1.2.8,1.4.2.2.4.2.7.2.2,0,.7-.2,1.4-.5l1.2-.6c.8-.4,1.4-.8,1.8-1.4s.6-1.2.7-2,0-1.8-.2-3.2l.5-.2Z"/>
      <path class="cls-5" d="M139.2,38.7l2.3,6.3h.3c1-.5,1.6-1,1.8-1.8s.2-1.8-.1-3l.4-.2,3,8.1-.4.2c-.4-.8-.9-1.5-1.4-2s-1-.7-1.4-.8c-.5,0-1.1,0-1.8.3l1.6,4.4c.3.9.5,1.4.7,1.5s.3.3.6.3.6,0,1-.2l.9-.3c1.4-.5,2.5-1.3,3.1-2.3.6-1,.9-2.2.8-3.8l.4-.2,1.1,5.2-13.4,4.9-.2-.4.5-.2c.4-.2.8-.4,1-.6.2-.2.2-.4.3-.7,0-.2-.1-.7-.4-1.5l-3.7-10.2c-.3-.7-.4-1.1-.5-1.3-.2-.2-.4-.4-.6-.5-.4-.1-.8,0-1.3.1l-.5.2-.2-.4,13-4.8,1.7,4.6-.4.2c-.6-1-1.2-1.7-1.8-2.1-.6-.3-1.3-.5-2.1-.5-.5,0-1.3.2-2.5.7l-1.6.6Z"/>
      <path class="cls-5" d="M164.6,29.8l1.4,5.7h-.4c-.9-1.3-2-2.3-3.3-2.8-1.3-.5-2.5-.6-3.8-.3-1.2.3-2.1.9-2.7,1.8s-.9,2-1,3.2.1,2.6.4,3.8c.4,1.5.9,2.8,1.6,3.9.7,1.1,1.5,1.8,2.4,2.1.9.3,2,.4,3.1,0,.4,0,.8-.2,1.2-.4.4-.2.8-.4,1.2-.7l-.8-3.3c-.2-.6-.3-1-.4-1.2s-.4-.3-.7-.4c-.3,0-.7,0-1,0h-.4c0,0-.1-.3-.1-.3l7.8-2v.4c-.5.2-.9.4-1.1.5-.2.2-.3.4-.4.8,0,.2,0,.5.2,1.1l.8,3.3c-.9.7-1.9,1.3-2.9,1.8s-2.2.9-3.4,1.2c-1.5.4-2.8.5-3.9.3-1.1-.2-2.1-.5-3.1-1s-1.7-1.1-2.4-1.8c-.8-1-1.4-2.1-1.8-3.5-.6-2.4-.3-4.7,1-6.8s3.2-3.5,5.8-4.1c.8-.2,1.5-.3,2.2-.4.4,0,1,0,1.8.1s1.4.1,1.5.1c.2,0,.4-.2.6-.4.1-.2.2-.6.3-1h.5Z"/>
      <path class="cls-5" d="M173.7,29.7l1,6.7h.3c1-.2,1.7-.6,2.1-1.3.4-.7.5-1.7.5-3h.5c0,0,1.2,8.5,1.2,8.5h-.5c-.2-.8-.6-1.6-.9-2.1-.4-.5-.8-.9-1.2-1-.4-.2-1.1-.2-1.8,0l.7,4.6c.1.9.2,1.5.4,1.6.1.2.3.3.5.4s.6.1,1,0h1c1.5-.4,2.7-.9,3.5-1.7.8-.8,1.3-2,1.5-3.5h.4c0,0,0,5.2,0,5.2l-14.2,2v-.5c0,0,.5,0,.5,0,.5,0,.9-.2,1.1-.4.2-.1.3-.4.4-.7,0-.2,0-.7,0-1.5l-1.6-10.8c-.1-.7-.2-1.2-.3-1.4-.1-.3-.3-.5-.5-.6-.3-.2-.8-.2-1.3-.2h-.5c0,0,0-.4,0-.4l13.7-2,.7,4.8h-.5c-.4-1.1-.9-1.9-1.4-2.3-.5-.5-1.1-.8-2-.9-.5,0-1.3,0-2.6.1l-1.7.3Z"/>
      <path class="cls-5" d="M203.6,26.6v4.5c.1,0-.3,0-.3,0-.3-1-.6-1.8-.9-2.2-.3-.4-.8-.8-1.3-1-.3-.1-.9-.2-1.6-.2h-1.2s.3,12.8.3,12.8c0,.8,0,1.4.2,1.6.1.2.3.4.6.5.3.2.6.2,1.1.2h.6s0,.4,0,.4l-8.7.2v-.5s.5,0,.5,0c.5,0,.9-.1,1.1-.3.2-.1.4-.3.5-.6,0-.2.1-.7.1-1.5l-.3-12.8h-1.2c-1.1,0-1.9.3-2.4.8-.7.7-1.1,1.6-1.3,2.9h-.5s-.1-4.5-.1-4.5l14.9-.4Z"/>
      <path class="cls-5" d="M211,28l-.5,6.7h.3c1.1,0,1.8-.2,2.4-.8.5-.6.9-1.6,1.1-2.9h.5s-.6,8.7-.6,8.7h-.5c0-1-.2-1.8-.4-2.4-.3-.6-.6-1-1-1.3-.4-.2-1-.4-1.8-.4l-.3,4.7c0,.9,0,1.5,0,1.7s.2.4.4.5c.2.1.5.2,1,.3h1c1.5.2,2.8,0,3.8-.7s1.7-1.7,2.2-3.1h.4s-1.1,5.2-1.1,5.2l-14.3-1v-.5s.6,0,.6,0c.5,0,.9,0,1.2-.2.2,0,.4-.3.5-.5.1-.2.2-.7.2-1.5l.8-10.9c0-.8,0-1.2,0-1.4,0-.3-.2-.5-.4-.7-.3-.2-.7-.4-1.2-.4h-.6s0-.5,0-.5l13.8,1-.3,4.9h-.5c-.1-1.2-.4-2.1-.8-2.7s-1-1-1.7-1.3c-.4-.2-1.3-.3-2.5-.4h-1.7Z"/>
      <path class="cls-5" d="M229.1,41.1l-5.8-1-1,1.5c-.3.5-.5.9-.6,1.2,0,.5,0,.8.4,1.1.2.2.7.3,1.6.6v.5c0,0-5.5-.9-5.5-.9v-.5c.7,0,1.2-.2,1.7-.5.4-.3,1.1-1.1,1.8-2.2l8.1-12h.2s3.6,14.4,3.6,14.4c.4,1.4.7,2.2,1,2.6.2.3.6.5,1.1.6v.5c0,0-8-1.3-8-1.3v-.5c0,0,.4,0,.4,0,.6.1,1.1,0,1.4,0,.2,0,.3-.3.4-.5,0-.1,0-.3,0-.5,0,0,0-.4-.2-1l-.5-2.2ZM228.8,40.2l-1.5-6-3.5,5.2,4.9.8Z"/>
      <path class="cls-5" d="M254.7,34.8l-1.5,5.5h-.5c0-1.7-.3-3-1-4-.7-1-1.7-1.7-2.9-2-1-.3-2-.2-3,0-1,.3-1.8.9-2.4,1.7-.8,1-1.4,2.3-1.8,3.7-.4,1.4-.6,2.8-.6,4s.4,2.3.9,3.1c.6.8,1.5,1.4,2.7,1.7,1,.3,2,.3,2.9.1s2.1-.7,3.3-1.5l-.4,1.4c-1.1.7-2.3,1.1-3.4,1.2-1.1.2-2.3,0-3.6-.3-1.7-.5-3.1-1.2-4.2-2.3s-1.9-2.3-2.2-3.8c-.4-1.5-.3-2.9,0-4.4.4-1.5,1.2-2.8,2.4-4s2.6-1.9,4.1-2.3c1.6-.4,3.1-.3,4.6,0,1.1.3,2.2.9,3.4,1.7.6.5,1.1.8,1.3.8.2,0,.5,0,.7,0s.4-.4.6-.8h.5Z"/>
      <path class="cls-5" d="M259.1,46l-1.9,4.8c-.3.8-.5,1.3-.5,1.5,0,.2.1.5.3.7s.5.5.9.6l.5.2-.2.4-8-3.2.2-.4.5.2c.4.2.8.2,1.2.2.2,0,.5-.2.7-.4.2-.2.4-.6.7-1.4l4-10.1c.3-.8.5-1.3.5-1.5,0-.2-.1-.5-.3-.7-.2-.2-.5-.5-.9-.6l-.5-.2.2-.4,8,3.2-.2.4-.5-.2c-.5-.2-.8-.2-1.2-.2-.2,0-.5.2-.7.4-.2.2-.4.6-.7,1.4l-1.7,4.3,5.4,2.2,1.7-4.3c.3-.8.5-1.3.5-1.5,0-.2-.1-.5-.3-.7s-.5-.5-.9-.6l-.5-.2.2-.4,8,3.2-.2.4-.5-.2c-.5-.2-.8-.2-1.2-.2-.2,0-.5.2-.7.4-.2.2-.4.6-.7,1.4l-4,10.1c-.3.8-.5,1.3-.5,1.5s.1.5.3.7.5.5.9.6l.5.2-.2.4-8-3.2.2-.4.5.2c.5.2.8.2,1.2.2.2,0,.5-.2.7-.4.2-.2.4-.6.7-1.4l1.9-4.8-5.4-2.2Z"/>
      <path class="cls-5" d="M279.5,46.8l-3.1,6,.3.2c.9.5,1.8.5,2.5.2s1.4-1.1,2.2-2.2l.4.2-4,7.7-.4-.2c.4-.9.5-1.7.5-2.3s-.1-1.2-.4-1.6c-.3-.4-.8-.8-1.5-1.1l-2.2,4.1c-.4.8-.6,1.3-.7,1.5s0,.4.1.6.4.4.8.7l.9.5c1.4.7,2.6,1,3.8.8s2.3-.9,3.3-2l.4.2-3.1,4.3-12.7-6.7.2-.4.5.2c.4.2.8.3,1.1.3.2,0,.5,0,.7-.3.2-.1.5-.6.8-1.3l5.1-9.6c.4-.7.5-1.1.6-1.2,0-.3,0-.5,0-.8-.2-.3-.5-.6-1-.9l-.5-.2.2-.4,12.3,6.4-2.3,4.3-.4-.2c.4-1.2.5-2.1.3-2.7-.1-.7-.5-1.3-1.1-1.9-.3-.3-1.1-.8-2.2-1.4l-1.5-.8Z"/>
      <path class="cls-5" d="M289.1,61.6l-2.5,3.9c-.5.8-.8,1.2-.8,1.5,0,.2,0,.5.2.8s.5.6,1.2,1l-.2.4-7.1-4.7.2-.4c.6.4,1.1.7,1.4.7.3,0,.6,0,.8-.2s.6-.6,1.1-1.3l5.9-9c.5-.8.8-1.2.8-1.5,0-.2,0-.5-.2-.8s-.5-.6-1.2-1l.2-.4,6.4,4.2c1.7,1.1,2.8,2,3.4,2.8s1,1.6,1,2.5c0,.9-.2,1.8-.7,2.7-.7,1-1.6,1.6-2.8,1.8-.8.1-1.6,0-2.6-.3l.2,6.9c0,.9.1,1.5.2,1.7.1.4.4.7.7,1l-.2.4-4.4-2.9-.3-9.2-.9-.6ZM293.6,54.8l-4,6.1.6.4c1,.6,1.7,1,2.3,1.1.6.1,1.2,0,1.7-.2.6-.3,1.1-.8,1.6-1.5.7-1,1-2,.8-2.8-.2-.8-.8-1.6-1.9-2.3l-1.1-.7Z"/>
      <path class="cls-5" d="M312.8,67.3l-3.3,4.4-.4-.3c.7-1.2.9-2.5.7-3.7-.2-1.2-.7-2.2-1.6-2.8-.6-.5-1.3-.8-2-.7-.7,0-1.2.3-1.5.8-.2.3-.4.6-.4.9,0,.4,0,1,.2,1.6.1.4.5,1.4,1.2,2.8.9,1.9,1.4,3.5,1.4,4.6,0,1.1-.4,2-1,2.9-.9,1.1-2,1.7-3.5,1.8-1.5.1-2.9-.3-4.1-1.4-.4-.3-.8-.7-1.1-1s-.6-.9-1-1.6c-.2-.4-.4-.6-.6-.8-.2-.1-.4-.2-.7-.2s-.6,0-.9.2l-.4-.3,3.9-4.9.4.3c-.8,1.6-1.1,3.1-.9,4.4.2,1.4.8,2.4,1.7,3.1.7.6,1.4.8,2.2.8s1.3-.3,1.7-.8c.2-.3.4-.7.5-1.1s0-.9,0-1.4c-.1-.5-.5-1.3-1-2.4-.7-1.5-1.2-2.7-1.4-3.5-.2-.8-.2-1.6-.1-2.3s.4-1.4.9-2c.8-1,1.9-1.6,3.2-1.7,1.3-.1,2.6.3,3.7,1.2.4.3.8.7,1.1,1.1.2.3.5.8.8,1.3.3.6.5.9.7,1,.2.1.3.2.5.2.2,0,.5-.2.9-.5l.3.2Z"/>
      <path class="cls-5" d="M310.2,75.9l.4-.4c1,.3,1.8.4,2.6.2.8-.2,1.4-.6,1.8-1.1,0,0,.1-.2.1-.3,0,0,0-.2,0-.2,0,0-.1,0-.2,0-.3,0-.5-.2-.8-.4-.4-.3-.5-.7-.6-1.2,0-.5.1-1,.5-1.3.4-.4.8-.6,1.4-.7.6,0,1.1.2,1.5.5.5.5.8,1.1.8,1.8s-.3,1.4-.9,2.2c-.8.9-1.7,1.4-2.9,1.6s-2.4,0-3.7-.6Z"/>
      <path class="cls-5" d="M319.5,90.6l-4-4.2-1.6.6c-.5.2-1,.4-1.2.7-.3.3-.5.7-.4,1.1,0,.2.4.7.9,1.4l-.3.3-3.8-4,.3-.3c.5.4,1,.6,1.5.6s1.5-.2,2.8-.7l13.7-4.8.2.2-5.8,13.7c-.5,1.3-.8,2.2-.8,2.7,0,.4.2.8.5,1.2l-.3.3-5.5-5.8.3-.3.2.2c.4.5.8.7,1.1.8.2,0,.4,0,.6-.2.1,0,.2-.2.3-.4,0,0,.2-.4.4-.9l.9-2.1ZM319.8,89.7l2.5-5.7-5.9,2.1,3.4,3.6Z"/>
      <path class="cls-5" d="M340.6,96.9l-4.2,3.5-.3-.4c.9-1,1.5-2.2,1.5-3.4,0-1.2-.2-2.3-.9-3.1-.5-.7-1.1-1-1.7-1.1s-1.2,0-1.6.4c-.3.2-.5.5-.6.8-.2.4-.2.9-.2,1.6,0,.5.2,1.5.5,3,.5,2.1.5,3.7.3,4.8-.2,1.1-.8,1.9-1.7,2.6-1.1.9-2.4,1.2-3.8.9s-2.7-1-3.7-2.3c-.3-.4-.6-.8-.8-1.3s-.4-1-.6-1.7c-.1-.4-.2-.7-.4-.9-.1-.2-.3-.3-.6-.4-.3,0-.6,0-.9,0l-.3-.3,4.9-3.9.3.3c-1.2,1.4-1.8,2.7-1.9,4.1s.2,2.5,1,3.4c.6.7,1.2,1.1,1.9,1.2s1.4,0,1.9-.4c.3-.2.5-.6.7-.9s.2-.8.2-1.4-.1-1.4-.4-2.6c-.4-1.6-.5-2.9-.5-3.7s.1-1.6.4-2.3c.3-.7.7-1.2,1.3-1.7,1-.8,2.2-1.1,3.5-.9,1.3.2,2.5.9,3.4,2,.3.4.6.9.8,1.3.2.4.3.8.4,1.4.1.6.3,1,.4,1.2s.3.3.5.3c.2,0,.5,0,1-.3l.2.3Z"/>
      <path class="cls-5" d="M348.3,108l-4.5,3.2-.3-.4c1-1,1.6-2.1,1.8-3.3.2-1.2,0-2.3-.6-3.2-.5-.7-1-1.1-1.6-1.3s-1.2,0-1.7.2c-.3.2-.5.5-.7.8-.2.4-.3.9-.3,1.6,0,.5,0,1.5.3,3,.3,2.1.3,3.7,0,4.8-.3,1-1,1.8-1.9,2.4-1.1.8-2.4,1-3.9.6-1.4-.3-2.6-1.2-3.5-2.6-.3-.4-.5-.9-.7-1.3-.2-.4-.3-1-.5-1.8,0-.4-.2-.7-.3-.9-.1-.2-.3-.3-.6-.4s-.6-.1-.9,0l-.2-.4,5.2-3.5.2.4c-1.3,1.3-2,2.6-2.2,4s0,2.5.7,3.5c.5.8,1.1,1.2,1.8,1.4s1.3,0,1.9-.3c.3-.2.6-.5.8-.9s.3-.8.3-1.4,0-1.4-.2-2.6c-.2-1.7-.3-2.9-.2-3.8,0-.8.3-1.6.6-2.2s.8-1.2,1.5-1.6c1.1-.7,2.3-1,3.6-.7s2.4,1,3.2,2.3c.3.4.5.9.7,1.4.1.4.2.9.3,1.5,0,.6.2,1,.3,1.2s.3.3.4.3.5,0,1-.2l.2.3Z"/>
      <path class="cls-5" d="M354,118.2c1.3,2.3,1.7,4.5,1,6.8s-2.1,3.9-4.2,5.1c-1.9,1-3.8,1.3-5.8,1-2.6-.4-4.7-1.9-6.1-4.6-1.4-2.6-1.6-5.1-.6-7.5.8-1.9,2.1-3.3,4.1-4.4,2.2-1.2,4.4-1.4,6.6-.7,2.2.7,3.9,2.2,5,4.3ZM353.4,118.7c-.7-1.3-2-2-3.7-1.9-1.4,0-3.2.6-5.3,1.8-2.5,1.3-4.1,2.8-4.8,4.3-.5,1.1-.5,2.1.1,3.2.4.7.9,1.3,1.5,1.6.8.4,1.8.5,3,.3,1.2-.2,2.6-.7,4.2-1.6,1.9-1,3.3-2,4-2.9.8-.9,1.2-1.7,1.3-2.5s0-1.5-.5-2.2Z"/>
      <path class="cls-5" d="M365.1,142.2l-5.3,2.2-.2-.4c1.2-.9,2.1-1.9,2.4-3.2s.3-2.4-.1-3.5c-.4-1-1-1.7-1.9-2.3-.9-.6-1.8-.9-2.9-.9-1.3,0-2.7.3-4.1.8-1.4.6-2.5,1.2-3.5,2.1-1,.8-1.6,1.7-1.9,2.7-.3,1-.2,2.1.3,3.2.4,1,1,1.8,1.7,2.4s1.8,1.2,3.2,1.6l-1.3.5c-1.2-.5-2.3-1.1-3-1.9s-1.4-1.8-1.9-3c-.7-1.6-.9-3.2-.8-4.8s.7-2.9,1.6-4.1c1-1.2,2.1-2.1,3.5-2.6,1.5-.6,3-.8,4.6-.6,1.6.2,3.1.9,4.3,1.9,1.2,1,2.2,2.2,2.8,3.7.4,1.1.7,2.3.7,3.7,0,.8,0,1.3.1,1.5.1.2.3.4.5.5s.6.1,1,0l.2.4Z"/>
      <path class="cls-5" d="M352.4,156.9h-.4c0,.1-2.6-8.1-2.6-8.1h.4c0-.1.2.4.2.4.1.5.4.8.6,1,.2.2.4.3.7.3.2,0,.7,0,1.5-.3l10.4-3.3c.8-.3,1.3-.5,1.5-.6s.3-.4.4-.7c0-.3,0-.7-.1-1.1l-.2-.5h.4c0-.1,2.6,8.1,2.6,8.1h-.4c0,.1-.2-.4-.2-.4-.1-.5-.4-.8-.6-1-.2-.2-.4-.3-.7-.3-.2,0-.7,0-1.5.3l-10.4,3.3c-.8.3-1.3.5-1.5.6-.2.1-.3.4-.4.7,0,.3,0,.7.1,1.1l.2.5Z"/>
      <path class="cls-5" d="M358.8,165l-1.4-5.7-1.7-.3c-.6-.1-1-.1-1.4,0-.5.1-.7.4-.9.8,0,.2,0,.8,0,1.6h-.4c0,.1-1.3-5.3-1.3-5.3h.4c.2.5.6.9,1.1,1.2s1.4.6,2.8.8l14.2,2.7v.2s-11.8,8.9-11.8,8.9c-1.1.9-1.8,1.5-2,1.9-.2.3-.2.7-.2,1.2h-.4c0,.1-1.8-7.7-1.8-7.7h.4c0-.1,0,.2,0,.2.1.6.3,1,.6,1.3.2.1.4.2.6.1.1,0,.3,0,.4-.2,0,0,.3-.2.8-.6l1.8-1.3ZM359.6,164.4l5-3.7-6.1-1.2,1.1,4.9Z"/>
      <path class="cls-5" d="M374,183.2l-4.4.6v-.4c.9-.4,1.6-.8,2-1.2.4-.4.7-.9.9-1.4.1-.3,0-.9,0-1.6l-.2-1.2-12.6,1.8c-.8.1-1.4.2-1.5.4s-.4.3-.5.6-.1.7,0,1.1v.5c0,0-.4,0-.4,0l-1.2-8.6h.5c0,0,0,.5,0,.5,0,.5.2.9.4,1.1.1.2.4.3.6.4.2,0,.7,0,1.5,0l12.6-1.8-.2-1.2c-.2-1.1-.5-1.9-1-2.3-.8-.6-1.8-.9-3-.9v-.5c0,0,4.4-.6,4.4-.6l2.1,14.7Z"/>
      <path class="cls-5" d="M358.5,193.9h-.5s-.6-8.6-.6-8.6h.5s0,.5,0,.5c0,.5.1.9.3,1.1.1.2.3.4.6.4.2,0,.7,0,1.5,0l10.9-.8c.8,0,1.4-.1,1.6-.2.2-.1.4-.3.5-.6.1-.3.2-.7.2-1.1v-.6s.4,0,.4,0l.6,8.6h-.5s0-.5,0-.5c0-.5-.1-.9-.3-1.1-.1-.2-.3-.4-.6-.5-.2,0-.7,0-1.5,0l-10.9.8c-.8,0-1.4.1-1.6.2s-.4.3-.5.6-.2.7-.2,1.1v.6Z"/>
      <path class="cls-5" d="M375,202.7c0,2.6-.8,4.8-2.4,6.4s-3.7,2.4-6.2,2.4c-2.1,0-3.9-.7-5.5-1.9-2.1-1.7-3.1-4-3.1-6.9,0-3,1.1-5.3,3.1-6.9,1.6-1.3,3.5-1.9,5.7-1.8,2.5,0,4.5.9,6.1,2.6,1.6,1.7,2.3,3.8,2.2,6.2ZM374.2,202.8c0-1.5-.7-2.7-2.3-3.5-1.3-.7-3.1-1-5.5-1.1-2.8,0-4.9.4-6.3,1.4-1,.7-1.4,1.6-1.5,2.9,0,.8.2,1.5.6,2.1.5.7,1.3,1.3,2.5,1.7,1.1.4,2.6.6,4.5.7,2.2,0,3.8-.1,4.9-.5s1.9-.9,2.3-1.5c.5-.6.7-1.3.7-2.2Z"/>
      <path class="cls-5" d="M373.9,218.5l-11.1,6.9,7.1.8c1,.1,1.7,0,2-.2.5-.3.8-1,.9-1.9h.5c0,0-.6,5.5-.6,5.5h-.5c0-.8,0-1.2-.2-1.5s-.3-.5-.6-.6c-.3-.2-.8-.3-1.6-.4l-13.7-1.6v-.4s15-9.6,15-9.6l-10.5-1.2c-1-.1-1.6,0-2,.4s-.6.9-.7,1.4v.4s-.5,0-.5,0l.7-5.8h.5c-.1,1,0,1.6.3,2s.9.6,1.8.8l11.6,1.3.5-.3c.5-.3.8-.6,1-.8s.3-.6.4-1.1h.5c0,0-.7,5.9-.7,5.9Z"/>
    </g>
  </g>
</svg>
